<?xml version="1.0" encoding="UTF-8"?>
<svg width="13px" height="10px" viewBox="0 0 13 10" version="1.1" xmlns="http://www.w3.org/2000/svg" xmlns:xlink="http://www.w3.org/1999/xlink">
    <!-- Generator: sketchtool 52.5 (67469) - http://www.bohemiancoding.com/sketch -->
    <title>000E15E0-293B-4DAC-810E-3830B9EFFE8F</title>
    <desc>Created with sketchtool.</desc>
    <g id="Web-App" stroke="none" stroke-width="1" fill="none" fill-rule="evenodd">
        <g id="Routes-&gt;-Inventory" transform="translate(-1373.000000, -761.000000)" fill="#3359DB" fill-rule="nonzero">
            <g id="Pagination" transform="translate(1206.000000, 749.000000)">
                <g id="right-arrow">
                    <g transform="translate(156.000000, 0.000000)">
                        <path d="M18.1410571,11.3368359 C17.6817488,10.8858214 16.9393311,10.8880573 16.4830839,11.3415685 L13.4130259,14.3932157 C12.1605374,15.6501857 14.0394362,17.5358074 15.2919247,16.2788374 L15.3043006,16.2662723 C15.6912595,15.8733979 16.0049516,16.0044528 16.0049516,16.5566244 L16.0049516,22.0022761 C16.0049516,22.7373987 16.6012557,23.3333333 17.3412838,23.3333333 L17.325715,23.3333333 C18.0637509,23.3333333 18.6620472,22.7378044 18.6620472,22.0022761 L18.6620472,16.5566244 C18.6620472,16.003393 18.9767201,15.8745426 19.3623718,16.2662723 L19.374742,16.2788374 C20.6272304,17.5358074 22.5061292,15.6501857 21.2536407,14.3932157 L18.1410571,11.3368359 Z" id="Path" transform="translate(17.333333, 17.166667) rotate(90.000000) translate(-17.333333, -17.166667) "></path>
                    </g>
                </g>
            </g>
        </g>
    </g>
</svg>
