<?xml version="1.0" encoding="UTF-8"?>
<svg width="13px" height="14px" viewBox="0 0 13 14" version="1.1" xmlns="http://www.w3.org/2000/svg" xmlns:xlink="http://www.w3.org/1999/xlink">
    <!-- Generator: sketchtool 52.5 (67469) - http://www.bohemiancoding.com/sketch -->
    <title>455A282E-3603-4F77-AB5E-47CA6C73489F</title>
    <desc>Created with sketchtool.</desc>
    <g id="Web-App" stroke="none" stroke-width="1" fill="none" fill-rule="evenodd">
        <g id="Trips-&gt;-Trip-Itinerary" transform="translate(-706.000000, -204.000000)" fill="#808FA3">
            <g id="Group-2" transform="translate(309.000000, 131.000000)">
                <g id="calendar-input-copy" transform="translate(225.000000, 31.000000)">
                    <path d="M174.557377,49.7541477 L175.409836,49.7541477 L175.409836,48.8926092 L174.557377,48.8926092 L174.557377,49.7541477 Z M173.705131,50.6154708 L176.262508,50.6154708 L176.262508,48.0312862 L173.705131,48.0312862 L173.705131,50.6154708 Z M174.557377,53.2005169 L175.409836,53.2005169 L175.409836,52.3385477 L174.557377,52.3385477 L174.557377,53.2005169 Z M173.705131,54.06184 L176.262508,54.06184 L176.262508,51.4770092 L173.705131,51.4770092 L173.705131,54.06184 Z M177.967213,49.7541477 L178.819672,49.7541477 L178.819672,48.8926092 L177.967213,48.8926092 L177.967213,49.7541477 Z M177.114754,50.6154708 L179.672131,50.6154708 L179.672131,48.0312862 L177.114754,48.0312862 L177.114754,50.6154708 Z M177.967213,53.2005169 L178.819672,53.2005169 L178.819672,52.3385477 L177.967213,52.3385477 L177.967213,53.2005169 Z M177.114754,54.06184 L179.672131,54.06184 L179.672131,51.4770092 L177.114754,51.4770092 L177.114754,54.06184 Z M181.377049,49.7541477 L182.229508,49.7541477 L182.229508,48.8926092 L181.377049,48.8926092 L181.377049,49.7541477 Z M180.52459,50.6154708 L183.081967,50.6154708 L183.081967,48.0312862 L180.52459,48.0312862 L180.52459,50.6154708 Z M181.377049,53.2005169 L182.229508,53.2005169 L182.229508,52.3385477 L181.377049,52.3385477 L181.377049,53.2005169 Z M180.52459,54.06184 L183.081967,54.06184 L183.081967,51.4770092 L180.52459,51.4770092 L180.52459,54.06184 Z M183.934426,46.3082092 L172.852459,46.3082092 L172.852459,54.4926092 C172.852459,54.7306092 173.04341,54.9233785 173.278902,54.9233785 L183.508197,54.9233785 C183.743689,54.9233785 183.934426,54.7306092 183.934426,54.4926092 L183.934426,46.3082092 Z M183.934426,44.1543631 C183.934426,43.9161477 183.743689,43.7233785 183.508197,43.7233785 L181.377049,43.7233785 L181.377049,44.5853477 L180.52459,44.5853477 L180.52459,43.7233785 L176.262295,43.7233785 L176.262295,44.5853477 L175.409836,44.5853477 L175.409836,43.7233785 L173.278902,43.7233785 C173.04341,43.7233785 172.852459,43.9161477 172.852459,44.1543631 L172.852459,45.4466708 L183.934426,45.4466708 L183.934426,44.1543631 Z M183.934426,55.7849169 L172.852459,55.7849169 C172.381689,55.7849169 172,55.3993785 172,54.9233785 L172,46.3082092 L172,45.4466708 L172,43.7233785 C172,43.2475938 172.381689,42.86184 172.852459,42.86184 L175.409836,42.86184 L175.409836,42.0000862 L176.262295,42.0000862 L176.262295,42.86184 L180.52459,42.86184 L180.52459,42.0000862 L181.377049,42.0000862 L181.377049,42.86184 L184.360656,42.86184 C184.831426,42.86184 184.786885,43.2475938 184.786885,43.7233785 L184.786885,45.4466708 L184.786885,46.3082092 L184.786885,54.9233785 C184.786885,55.3993785 184.405197,55.7849169 183.934426,55.7849169 L183.934426,55.7849169 Z" id="calendar-icon"></path>
                </g>
            </g>
        </g>
    </g>
</svg>