<?xml version="1.0" encoding="UTF-8"?>
<svg width="19px" height="19px" viewBox="0 0 19 19" version="1.1" xmlns="http://www.w3.org/2000/svg" xmlns:xlink="http://www.w3.org/1999/xlink">
    <!-- Generator: sketchtool 52.5 (67469) - http://www.bohemiancoding.com/sketch -->
    <title>27668852-6BAA-4230-825C-9598702FE1E8</title>
    <desc>Created with sketchtool.</desc>
    <g id="Web-App" stroke="none" stroke-width="1" fill="none" fill-rule="evenodd">
        <g id="Routes-&gt;-Inventory-(Hover)" transform="translate(-1339.000000, -396.000000)" fill="#FF5359" fill-rule="nonzero">
            <g id="Table" transform="translate(309.000000, 146.000000)">
                <g id="Row-1-Hover" transform="translate(0.000000, 231.000000)">
                    <g id="Actions" transform="translate(951.000000, 14.000000)">
                        <g id="ic_decline" transform="translate(74.000000, 0.000000)">
                            <path d="M19.1287234,5.09895833 L9.8712766,5.09895833 C7.26382979,5.09895833 5.16170213,7.15729167 5.16170213,9.71041667 L5.16170213,15.45 C5.16170213,18.003125 7.26382979,20.0614583 9.8712766,20.0614583 L11.1648936,20.0614583 L12.9840426,23.05 C13.6712766,24.178125 15.3489362,24.178125 16.0361702,23.05 L17.8553191,20.0614583 L19.1489362,20.0614583 C21.756383,20.0614583 23.8585106,18.003125 23.8585106,15.45 L23.8585106,9.71041667 C23.8382979,7.15729167 21.7361702,5.09895833 19.1287234,5.09895833 Z M17.9968085,14.5 C18.4212766,14.915625 18.4212766,15.5885417 17.9968085,16.0041667 C17.7744681,16.221875 17.5117021,16.3208333 17.2287234,16.3208333 C16.9457447,16.3208333 16.662766,16.221875 16.4606383,16.0041667 L14.5,14.084375 L12.5393617,16.0041667 C12.3170213,16.221875 12.0542553,16.3208333 11.7712766,16.3208333 C11.4882979,16.3208333 11.2053191,16.221875 11.0031915,16.0041667 C10.5787234,15.5885417 10.5787234,14.915625 11.0031915,14.5 L12.9638298,12.5802083 L11.0031915,10.6604167 C10.5787234,10.2447917 10.5787234,9.571875 11.0031915,9.15625 C11.4276596,8.740625 12.1148936,8.740625 12.5393617,9.15625 L14.5,11.0760417 L16.4606383,9.15625 C16.8851064,8.740625 17.5723404,8.740625 17.9968085,9.15625 C18.4212766,9.571875 18.4212766,10.2447917 17.9968085,10.6604167 L16.0361702,12.5802083 L17.9968085,14.5 Z" id="Shape"></path>
                        </g>
                    </g>
                </g>
            </g>
        </g>
    </g>
</svg>
