<?xml version="1.0" encoding="UTF-8"?>
<svg width="11px" height="13px" viewBox="0 0 11 13" version="1.1" xmlns="http://www.w3.org/2000/svg" xmlns:xlink="http://www.w3.org/1999/xlink">
    <!-- Generator: sketchtool 52.5 (67469) - http://www.bohemiancoding.com/sketch -->
    <title>5CC978D8-BD5B-4996-84CB-28ADB0462C01</title>
    <desc>Created with sketchtool.</desc>
    <g id="Web-App" stroke="none" stroke-width="1" fill="none" fill-rule="evenodd">
        <g id="Routes-&gt;-Inventory-(Hover)" transform="translate(-1306.000000, -399.000000)">
            <g id="Table" transform="translate(309.000000, 146.000000)">
                <g id="Row-1-Hover" transform="translate(0.000000, 231.000000)">
                    <g id="Actions" transform="translate(951.000000, 14.000000)">
                        <g id="ic_duplicate" transform="translate(37.000000, 0.000000)">
                            <g id="Duplicate" transform="translate(9.000000, 9.000000)">
                                <g id="Group">
                                    <rect id="Rectangle" x="0" y="0" width="11" height="11"></rect>
                                    <path d="M6.6396,11 L1.8513,11 C1.18303545,11 0.6413,10.4582645 0.6413,9.79 L0.6413,3.4804 C0.6413,2.81213545 1.18303545,2.2704 1.8513,2.2704 L6.6396,2.2704 C7.30786455,2.2704 7.8496,2.81213545 7.8496,3.4804 L7.8496,9.79 C7.8496,10.4582645 7.30786455,11 6.6396,11 Z M1.8513,2.8831 C1.5216714,2.88370538 1.25460538,3.1507714 1.254,3.4804 L1.254,9.79 C1.25460538,10.1196286 1.5216714,10.3866946 1.8513,10.3873 L6.6396,10.3873 C6.9692286,10.3866946 7.23629462,10.1196286 7.2369,9.79 L7.2369,3.4804 C7.23629462,3.1507714 6.9692286,2.88370538 6.6396,2.8831 L1.8513,2.8831 Z" id="Shape" stroke="#000000" stroke-width="0.4" fill="#000000" fill-rule="nonzero"></path>
                                    <path d="M9.2884,8.2247 L9.02,8.2247 C8.85171884,8.2247 8.7153,8.08828116 8.7153,7.92 C8.7153,7.75171884 8.85171884,7.6153 9.02,7.6153 L9.2928,7.6153 C9.54527459,7.61469527 9.74979527,7.41017459 9.7504,7.1577 L9.7504,1.21 C9.74979462,0.880371401 9.4827286,0.61330538 9.1531,0.6127 L4.7223,0.6127 C4.47085764,0.612693462 4.26651329,0.815564178 4.2647,1.067 C4.2647,1.23528116 4.12828116,1.3717 3.96,1.3717 C3.79171884,1.3717 3.6553,1.23528116 3.6553,1.067 C3.65590632,0.477963499 4.1332635,0.000606317003 4.7223,0 L9.1487,0 C9.81696455,6.34457551e-16 10.3587,0.541735453 10.3587,1.21 L10.3587,7.161 C10.3562747,7.7500358 9.87743953,8.22591826 9.2884,8.2247 Z" id="Path" stroke="#000000" stroke-width="0.4" fill="#000000"></path>
                                </g>
                            </g>
                        </g>
                    </g>
                </g>
            </g>
        </g>
    </g>
</svg>
