<?xml version="1.0" encoding="UTF-8"?>
<svg width="31px" height="31px" viewBox="0 0 31 31" version="1.1" xmlns="http://www.w3.org/2000/svg" xmlns:xlink="http://www.w3.org/1999/xlink">
    <!-- Generator: sketchtool 52.5 (67469) - http://www.bohemiancoding.com/sketch -->
    <title>0FDE8559-6A4D-4579-A545-95FA6949F3AA</title>
    <desc>Created with sketchtool.</desc>
    <g id="Documentation" stroke="none" stroke-width="1" fill="none" fill-rule="evenodd">
        <g id="2" transform="translate(-738.000000, -475.000000)">
            <g id="Actions" transform="translate(739.000000, 476.000000)">
                <g id="ic_edit">
                    <path d="M28.2708715,7.12030556 C27.6586493,3.83404167 25.0784549,1.32111111 21.8542188,0.708486111 C19.4037188,0.225958333 16.920191,0 14.502316,0 C12.019191,0 9.53606597,0.225958333 7.08596875,0.708486111 C3.79688542,1.32111111 1.31416319,3.86626389 0.701135417,7.08808333 C-0.233711806,11.9850556 -0.233711806,16.9795 0.701135417,21.84425 C1.31376042,25.1631389 3.86092708,27.6438472 7.08596875,28.2564722 C9.53606597,28.7712222 12.019191,28.9971806 14.502316,28.9971806 C16.9850382,28.9971806 19.4351354,28.7712222 21.8860382,28.2882917 C25.1755243,27.6438472 27.6586493,25.1309167 28.2708715,21.876875 C29.2383438,16.9790972 29.2383438,11.9850556 28.2708715,7.12030556 Z" id="Path" stroke="#F1F3F5"></path>
                    <path d="M20.0627354,8.60375 C19.2587354,7.79875 17.8557354,7.79875 17.0507354,8.60375 L9.90773543,15.74675 C9.83973543,15.81475 9.79073543,15.90075 9.76773543,15.99375 L9.01573543,19.00475 C8.97073543,19.18575 9.02373543,19.37775 9.15573543,19.51075 C9.25673543,19.61175 9.39273543,19.66675 9.53173543,19.66675 C9.57473543,19.66675 9.61773543,19.66175 9.66073543,19.65075 L12.6727354,18.89775 C12.7667354,18.87475 12.8517354,18.82575 12.9197354,18.75775 L20.0627354,11.61475 C20.4647354,11.21275 20.6867354,10.67775 20.6867354,10.10875 C20.6867354,9.53975 20.4657354,9.00575 20.0627354,8.60375 Z M12.2717354,17.90075 L10.2637354,18.40275 L10.7657354,16.39475 L16.6747354,10.48575 L18.1807354,11.99175 L12.2717354,17.90075 Z M19.3097354,10.86175 L18.9337354,11.23775 L17.4277354,9.73175 L17.8037354,9.35575 C18.2057354,8.95375 18.9077354,8.95375 19.3097354,9.35575 C19.5107354,9.55675 19.6217354,9.82375 19.6217354,10.10875 C19.6217354,10.39375 19.5107354,10.66075 19.3097354,10.86175 Z" id="Shape" fill="#000000" fill-rule="nonzero"></path>
                </g>
            </g>
        </g>
    </g>
</svg>
