<?xml version="1.0" encoding="UTF-8"?>
<svg width="29px" height="29px" viewBox="0 0 29 29" version="1.1" xmlns="http://www.w3.org/2000/svg" xmlns:xlink="http://www.w3.org/1999/xlink">
    <!-- Generator: sketchtool 52.5 (67469) - http://www.bohemiancoding.com/sketch -->
    <title>B1BB64C9-C2AC-4404-BA78-7C61EBBD0DEC</title>
    <desc>Created with sketchtool.</desc>
    <g id="Web-App" stroke="none" stroke-width="1" fill="none" fill-rule="evenodd">
        <g id="Routes-&gt;-Inventory" transform="translate(-1368.000000, -104.000000)">
            <g id="ic_export" transform="translate(1368.000000, 104.000000)">
                <g>
                    <path d="M28.2725833,7.12191667 C27.6603611,3.83565278 25.0801667,1.32272222 21.8559306,0.710097222 C19.4054306,0.227569444 16.9219028,0.00161111111 14.5040278,0.00161111111 C12.0209028,0.00161111111 9.53777778,0.227569444 7.08768056,0.710097222 C3.79859722,1.32272222 1.315875,3.867875 0.702847222,7.08969444 C-0.232,11.9866667 -0.232,16.9811111 0.702847222,21.8458611 C1.31547222,25.16475 3.86263889,27.6454583 7.08768056,28.2580833 C9.53777778,28.7728333 12.0209028,28.9987917 14.5040278,28.9987917 C16.98675,28.9987917 19.4368472,28.7728333 21.88775,28.2899028 C25.1772361,27.6454583 27.6603611,25.1325278 28.2725833,21.8784861 C29.2400556,16.9807083 29.2400556,11.9866667 28.2725833,7.12191667 Z" id="Path" fill="#3359DB"></path>
                    <path d="M12.3909759,9.89868877 C12.0727709,10.2226493 11.5568587,10.2226493 11.2386537,9.89868877 C10.9204488,9.57472824 10.9204488,9.04948444 11.2386537,8.72552391 L13.6771017,6.24297039 C13.9953067,5.91900987 14.5112189,5.91900987 14.8294239,6.24297039 L17.2678718,8.72552391 C17.5860768,9.04948444 17.5860768,9.57472824 17.2678718,9.89868877 C16.9496668,10.2226493 16.4337546,10.2226493 16.1155497,9.89868877 L15.0680776,8.83227048 L15.0680776,15.3324692 C15.0680776,15.7906186 14.7032726,16.162022 14.2532628,16.162022 C13.803253,16.162022 13.438448,15.7906186 13.438448,15.3324692 L13.438448,8.83227048 L12.3909759,9.89868877 Z M8,19.6396681 C8,21.010339 9.09298778,22.125081 10.4412565,22.125081 L18.5587435,22.125081 C19.9050627,22.125081 21,21.0123238 21,19.6396681 L21,13.8992733 C20.9990405,13.8762589 21,13.8530196 21,13.8295528 C21,13.3723357 20.635195,13 20.1851852,13 C19.7360911,13 19.3703704,13.3714034 19.3703704,13.8295528 C19.3703704,13.8450567 19.3707898,13.8604629 19.3716179,13.8757603 L19.3703704,19.6396681 C19.3703704,20.095135 19.0059175,20.4659754 18.5587435,20.4659754 L10.4412565,20.4659754 C9.99388156,20.4659754 9.62962962,20.0949305 9.62962962,19.6396681 L9.62962962,13.7639703 C9.59419368,13.3372396 9.24309096,13 8.81481482,13 C8.39520906,13 8.04838728,13.3242306 8.00465046,13.7405066 L8,19.6396681 Z" id="Shape" stroke="#FFFFFF" stroke-width="0.5" fill="#FFFFFF" fill-rule="nonzero"></path>
                </g>
            </g>
        </g>
    </g>
</svg>
