<?xml version="1.0" encoding="UTF-8"?>
<svg width="17px" height="18px" viewBox="0 0 17 18" version="1.1" xmlns="http://www.w3.org/2000/svg" xmlns:xlink="http://www.w3.org/1999/xlink">
    <!-- Generator: sketchtool 52.5 (67469) - http://www.bohemiancoding.com/sketch -->
    <title>1487646A-A6BB-46CE-9626-82E6185EACB7</title>
    <desc>Created with sketchtool.</desc>
    <defs>
        <path d="M16.8023256,7.36363636 L8.69767442,7.36363636 L8.69767442,10.8409091 L13.3627907,10.8409091 C12.927907,13.05 11.1093023,14.3181818 8.69767442,14.3181818 C5.85116279,14.3181818 3.55813953,11.9454545 3.55813953,9 C3.55813953,6.05454545 5.85116279,3.68181818 8.69767442,3.68181818 C9.92325581,3.68181818 11.0302326,4.13181818 11.9,4.86818182 L14.4302326,2.25 C12.8883721,0.859090909 10.9116279,0 8.69767442,0 C3.8744186,0 0,4.00909091 0,9 C0,13.9909091 3.8744186,18 8.69767442,18 C13.0465116,18 17,14.7272727 17,9 C17,8.46818182 16.9209302,7.89545455 16.8023256,7.36363636 Z" id="path-1"></path>
        <path d="M16.8023256,7.36363636 L8.69767442,7.36363636 L8.69767442,10.8409091 L13.3627907,10.8409091 C12.927907,13.05 11.1093023,14.3181818 8.69767442,14.3181818 C5.85116279,14.3181818 3.55813953,11.9454545 3.55813953,9 C3.55813953,6.05454545 5.85116279,3.68181818 8.69767442,3.68181818 C9.92325581,3.68181818 11.0302326,4.13181818 11.9,4.86818182 L14.4302326,2.25 C12.8883721,0.859090909 10.9116279,0 8.69767442,0 C3.8744186,0 0,4.00909091 0,9 C0,13.9909091 3.8744186,18 8.69767442,18 C13.0465116,18 17,14.7272727 17,9 C17,8.46818182 16.9209302,7.89545455 16.8023256,7.36363636 Z" id="path-3"></path>
        <path d="M16.8023256,7.36363636 L8.69767442,7.36363636 L8.69767442,10.8409091 L13.3627907,10.8409091 C12.927907,13.05 11.1093023,14.3181818 8.69767442,14.3181818 C5.85116279,14.3181818 3.55813953,11.9454545 3.55813953,9 C3.55813953,6.05454545 5.85116279,3.68181818 8.69767442,3.68181818 C9.92325581,3.68181818 11.0302326,4.13181818 11.9,4.86818182 L14.4302326,2.25 C12.8883721,0.859090909 10.9116279,0 8.69767442,0 C3.8744186,0 0,4.00909091 0,9 C0,13.9909091 3.8744186,18 8.69767442,18 C13.0465116,18 17,14.7272727 17,9 C17,8.46818182 16.9209302,7.89545455 16.8023256,7.36363636 Z" id="path-5"></path>
        <path d="M16.8023256,7.36363636 L8.69767442,7.36363636 L8.69767442,10.8409091 L13.3627907,10.8409091 C12.927907,13.05 11.1093023,14.3181818 8.69767442,14.3181818 C5.85116279,14.3181818 3.55813953,11.9454545 3.55813953,9 C3.55813953,6.05454545 5.85116279,3.68181818 8.69767442,3.68181818 C9.92325581,3.68181818 11.0302326,4.13181818 11.9,4.86818182 L14.4302326,2.25 C12.8883721,0.859090909 10.9116279,0 8.69767442,0 C3.8744186,0 0,4.00909091 0,9 C0,13.9909091 3.8744186,18 8.69767442,18 C13.0465116,18 17,14.7272727 17,9 C17,8.46818182 16.9209302,7.89545455 16.8023256,7.36363636 Z" id="path-7"></path>
    </defs>
    <g id="Landing-Page" stroke="none" stroke-width="1" fill="none" fill-rule="evenodd">
        <g transform="translate(-230.000000, -558.000000)" id="Sign-in">
            <g transform="translate(203.000000, 542.000000)">
                <g id="Google__G__Logo" transform="translate(27.000000, 16.000000)">
                    <g id="Clipped">
                        <mask id="mask-2" fill="white">
                            <use xlink:href="#path-1"></use>
                        </mask>
                        <g id="a"></g>
                        <polygon id="Path" fill="#FBBC05" mask="url(#mask-2)" points="-0.790697674 14.3181818 -0.790697674 3.68181818 5.93023256 9"></polygon>
                    </g>
                    <g id="Clipped">
                        <mask id="mask-4" fill="white">
                            <use xlink:href="#path-3"></use>
                        </mask>
                        <g id="a"></g>
                        <polygon id="Path" fill="#EA4335" mask="url(#mask-4)" points="-0.790697674 3.68181818 5.93023256 9 8.69767442 6.50454545 18.1860465 4.90909091 18.1860465 -0.818181818 -0.790697674 -0.818181818"></polygon>
                    </g>
                    <g id="Clipped">
                        <mask id="mask-6" fill="white">
                            <use xlink:href="#path-5"></use>
                        </mask>
                        <g id="a"></g>
                        <polygon id="Path" fill="#34A853" mask="url(#mask-6)" points="-0.790697674 14.3181818 11.0697674 4.90909091 14.1930233 5.31818182 18.1860465 -0.818181818 18.1860465 18.8181818 -0.790697674 18.8181818"></polygon>
                    </g>
                    <g id="Clipped">
                        <mask id="mask-8" fill="white">
                            <use xlink:href="#path-7"></use>
                        </mask>
                        <g id="a"></g>
                        <polygon id="Path" fill="#4285F4" mask="url(#mask-8)" points="18.1860465 18.8181818 5.93023256 9 4.34883721 7.77272727 18.1860465 3.68181818"></polygon>
                    </g>
                </g>
            </g>
        </g>
    </g>
</svg>