<?xml version="1.0" encoding="UTF-8"?>
<svg width="25px" height="29px" viewBox="0 0 25 29" version="1.1" xmlns="http://www.w3.org/2000/svg" xmlns:xlink="http://www.w3.org/1999/xlink">
    <!-- Generator: Sketch 52.5 (67469) - http://www.bohemiancoding.com/sketch -->
    <title>Green Alert Icon</title>
    <desc>Created with Sketch.</desc>
    <defs>
        <path d="M12.1980337,-9.09494702e-13 C5.46306865,-9.09494702e-13 0.00330071585,5.46683884 0.00330071585,12.2105263 C0.00330071585,18.9537895 12.1980337,29 12.1980337,29 C12.1980337,29 24.3927667,18.9537895 24.3927667,12.2105263 C24.3927667,5.46683884 18.9329988,-9.09494702e-13 12.1980337,-9.09494702e-13 L12.1980337,-9.09494702e-13 Z" id="path-1"></path>
    </defs>
    <g id="Documentation" stroke="none" stroke-width="1" fill="none" fill-rule="evenodd">
        <g id="1" transform="translate(-137.000000, -353.000000)">
            <g id="Alert-Successful" transform="translate(114.000000, 340.000000)">
                <g id="Green-Alert-Icon" transform="translate(23.000000, 13.000000)">
                    <mask id="mask-2" fill="white">
                        <use xlink:href="#path-1"></use>
                    </mask>
                    <use id="Mask" fill="#10A36D" xlink:href="#path-1"></use>
                    <path d="M16.3884946,16.1200411 L7.56941137,16.1076579 C7.35084882,17.256554 6.34310638,18.125 5.1329513,18.125 C3.84600099,18.125 2.78796826,17.1428354 2.66456608,15.8856966 C1.24556193,15.8279741 0.183545843,15.2990962 -0.479659007,14.2962763 L0.19546896,13.8479157 C0.707511755,14.6221662 1.53386629,15.0323142 2.71663547,15.0755544 C2.9714959,13.9744142 3.95659091,13.1537953 5.1329513,13.1537953 C6.32558623,13.1537953 7.32162699,13.9972773 7.55942412,15.1214158 L16.3527314,15.1337628 C16.5453803,13.9532334 17.5679591,13.0523422 18.8005127,13.0523422 C20.0293051,13.0523422 21.0494023,13.9477436 21.2465072,15.1229635 L23.7700184,15.1345733 L23.7669584,16.1207999 L21.2151338,16.1090598 C20.9576276,17.206539 19.974282,18.0235468 18.8005127,18.0235468 C17.6306616,18.0235468 16.649965,17.2119845 16.3884946,16.1200411 Z M0.0312773527,11.117579 L0.113170633,10.3101132 C2.72100283,10.5757086 4.26462027,10.2416363 4.76783647,9.41194879 C5.75928169,7.77728422 7.90628309,7.25 12.8021159,7.25 C14.8642865,7.25 16.15526,7.7140279 17.3178818,8.63433511 C17.5042502,8.78186045 18.0806716,9.27977249 18.195517,9.37073237 C18.6189087,9.70606745 18.9364276,9.84393571 19.3607437,9.84393571 C20.6945063,9.84393571 22.4589844,10.0001967 24.6580151,10.3120368 L24.5445313,11.1156555 C22.3799351,10.8086985 20.6507269,10.655561 19.3607437,10.655561 C18.7291045,10.655561 18.2475586,10.4464714 17.6932995,10.0074866 C17.5603863,9.90221654 16.9840758,9.4044004 16.8158367,9.27122585 C15.7939912,8.46235414 14.679122,8.06162525 12.8021159,8.06162525 C8.18605614,8.06162525 6.24557278,8.5381905 5.4599576,9.83348878 C4.74105239,11.0187977 2.92355447,11.4121437 0.0312773527,11.117579 Z M22.6080128,12.9212664 C22.1395307,12.7783436 21.861591,12.4990326 21.7741935,12.0833333 L25,12.0968741 L24.9967027,13.0664446 C23.8727248,13.112582 23.0764948,13.0641892 22.6080128,12.9212664 Z M5.1329513,17.3133747 C6.05553177,17.3133747 6.80343102,16.5639097 6.80343102,15.6393977 C6.80343102,14.7148857 6.05553177,13.9654206 5.1329513,13.9654206 C4.21037082,13.9654206 3.46247157,14.7148857 3.46247157,15.6393977 C3.46247157,16.5639097 4.21037082,17.3133747 5.1329513,17.3133747 Z M18.8005127,17.2119216 C19.7230932,17.2119216 20.4709924,16.4624565 20.4709924,15.5379445 C20.4709924,14.6134325 19.7230932,13.8639674 18.8005127,13.8639674 C17.8779322,13.8639674 17.130033,14.6134325 17.130033,15.5379445 C17.130033,16.4624565 17.8779322,17.2119216 18.8005127,17.2119216 Z M7.93349869,21.5146899 C7.74216931,21.3287004 7.73772397,21.022703 7.92356974,20.8312256 C8.10941551,20.6397482 8.41517638,20.6352995 8.60650576,20.821289 C9.73144527,21.9148324 10.8257043,22.446692 11.8952516,22.446692 C12.9647988,22.446692 14.0590578,21.9148324 15.1839973,20.821289 C15.3753267,20.6352995 15.6810876,20.6397482 15.8669334,20.8312256 C16.0527791,21.022703 16.0483338,21.3287004 15.8570044,21.5146899 C14.565111,22.7705277 13.2425372,23.4133586 11.8952516,23.4133586 C10.5479659,23.4133586 9.22539206,22.7705277 7.93349869,21.5146899 Z" id="Combined-Shape" stroke="#FFFFFF" stroke-width="0.8064" fill="#FFFFFF" fill-rule="nonzero" mask="url(#mask-2)"></path>
                </g>
            </g>
        </g>
    </g>
</svg>