<?xml version="1.0" encoding="UTF-8"?>
<svg width="19px" height="19px" viewBox="0 0 19 19" version="1.1" xmlns="http://www.w3.org/2000/svg" xmlns:xlink="http://www.w3.org/1999/xlink">
    <!-- Generator: sketchtool 52.5 (67469) - http://www.bohemiancoding.com/sketch -->
    <title>A4E5F32F-6B41-4380-96E2-6F0A50BBA311</title>
    <desc>Created with sketchtool.</desc>
    <g id="Web-App" stroke="none" stroke-width="1" fill="none" fill-rule="evenodd">
        <g id="Trips-&gt;-Pending-Requests" transform="translate(-1286.000000, -339.000000)" fill="#10A36D" fill-rule="nonzero">
            <g id="Table" transform="translate(309.000000, 146.000000)">
                <g id="Actions" transform="translate(972.000000, 188.000000)">
                    <g id="ic_confirm">
                        <path d="M19.1287234,5.09895833 C21.7361702,5.09895833 23.8382979,7.15729167 23.8585106,9.71041667 L23.8585106,15.45 C23.8585106,18.003125 21.756383,20.0614583 19.1489362,20.0614583 L17.8553191,20.0614583 L16.0361702,23.05 C15.3489362,24.178125 13.6712766,24.178125 12.9840426,23.05 L11.1648936,20.0614583 L9.8712766,20.0614583 C7.26382979,20.0614583 5.16170213,18.003125 5.16170213,15.45 L5.16170213,9.71041667 C5.16170213,7.15729167 7.26382979,5.09895833 9.8712766,5.09895833 L19.1287234,5.09895833 Z M17.2960019,9.38091389 L12.5624717,13.9690935 L10.8445399,12.3634196 C10.4410554,11.9863007 9.80825125,12.0076742 9.43113233,12.4111588 C9.05401341,12.8146433 9.07538696,13.4474474 9.47887149,13.8245663 L11.8921809,16.0801786 C12.2816551,16.4442027 12.8882162,16.4386914 13.2710116,16.0676504 L18.6879948,10.8170043 C19.0845603,10.4326161 19.0944318,9.79952804 18.7100436,9.40296262 C18.3256553,9.00639721 17.6925673,8.99652566 17.2960019,9.38091389 Z" id="Combined-Shape"></path>
                    </g>
                </g>
            </g>
        </g>
    </g>
</svg>