<?xml version="1.0" encoding="UTF-8"?>
<svg width="10px" height="9px" viewBox="0 0 10 9" version="1.1" xmlns="http://www.w3.org/2000/svg" xmlns:xlink="http://www.w3.org/1999/xlink">
    <!-- Generator: sketchtool 52.5 (67469) - http://www.bohemiancoding.com/sketch -->
    <title>81FE8090-B2B5-4CDA-A857-007C96A24825</title>
    <desc>Created with sketchtool.</desc>
    <g id="Web-App" stroke="none" stroke-width="1" fill="none" fill-rule="evenodd">
        <g id="Routes-&gt;-Inventory" transform="translate(-1319.000000, -171.000000)" fill="#FFAF30" fill-rule="nonzero">
            <g id="Table" transform="translate(309.000000, 146.000000)">
                <g id="Table-Header" transform="translate(25.000000, 17.000000)">
                    <g id="info" transform="translate(985.000000, 8.000000)">
                        <path d="M8.62954545,7.62954545 C10.3579545,5.90113636 10.3579545,3.09886364 8.62954545,1.37045455 C6.90113636,-0.357954545 4.09886364,-0.357954545 2.37045455,1.37045455 C0.703409091,3.0375 0.642045455,5.69659091 2.18636364,7.43522727 L1.60099918,6.92328991 C1.43736281,7.28124445 1.48739413,8.10210001 0.728863636,8.53181596 C0.575454545,8.60340687 0.616363636,8.82840687 0.78,8.85908869 C1.28113636,8.94090687 2.37045455,9.24626144 3.25,8.31477273 L3.26022727,8.325 C4.95795455,9.31704545 7.17727273,9.08181818 8.62954545,7.62954545 Z M3.68409091,3.76931818 C4.08295455,3.76931818 4.4,4.09659091 4.4,4.49545455 C4.4,4.89431818 4.07272727,5.22159091 3.68409091,5.22159091 C3.28522727,5.22159091 2.95795455,4.89431818 2.95795455,4.48522727 C2.96818182,4.08636364 3.28522727,3.76931818 3.68409091,3.76931818 Z M5.68409091,3.76931818 C6.08295455,3.76931818 6.4,4.09659091 6.4,4.49545455 C6.4,4.89431818 6.07272727,5.22159091 5.68409091,5.22159091 C5.28522727,5.22159091 4.95795455,4.89431818 4.95795455,4.48522727 C4.96818182,4.08636364 5.28522727,3.76931818 5.68409091,3.76931818 Z M7.68409091,3.76931818 C8.08295455,3.76931818 8.4,4.09659091 8.4,4.49545455 C8.4,4.89431818 8.07272727,5.22159091 7.68409091,5.22159091 C7.28522727,5.22159091 6.95795455,4.89431818 6.95795455,4.48522727 C6.96818182,4.08636364 7.28522727,3.76931818 7.68409091,3.76931818 Z" id="Shape"></path>
                    </g>
                </g>
            </g>
        </g>
    </g>
</svg>
