<?xml version="1.0" encoding="UTF-8"?>
<svg width="29px" height="29px" viewBox="0 0 29 29" version="1.1" xmlns="http://www.w3.org/2000/svg" xmlns:xlink="http://www.w3.org/1999/xlink">
    <!-- Generator: sketchtool 52.5 (67469) - http://www.bohemiancoding.com/sketch -->
    <title>105E5B05-BBAE-45BB-A5CD-A44BD8526958</title>
    <desc>Created with sketchtool.</desc>
    <g id="Web-App" stroke="none" stroke-width="1" fill="none" fill-rule="evenodd">
        <g id="Routes-&gt;-Inventory" transform="translate(-309.000000, -104.000000)">
            <g id="ic_search" transform="translate(309.000000, 104.000000)">
                <g>
                    <path d="M28.2725833,7.12191667 C27.6603611,3.83565278 25.0801667,1.32272222 21.8559306,0.710097222 C19.4054306,0.227569444 16.9219028,0.00161111111 14.5040278,0.00161111111 C12.0209028,0.00161111111 9.53777778,0.227569444 7.08768056,0.710097222 C3.79859722,1.32272222 1.315875,3.867875 0.702847222,7.08969444 C-0.232,11.9866667 -0.232,16.9811111 0.702847222,21.8458611 C1.31547222,25.16475 3.86263889,27.6454583 7.08768056,28.2580833 C9.53777778,28.7728333 12.0209028,28.9987917 14.5040278,28.9987917 C16.98675,28.9987917 19.4368472,28.7728333 21.88775,28.2899028 C25.1772361,27.6454583 27.6603611,25.1325278 28.2725833,21.8784861 C29.2400556,16.9807083 29.2400556,11.9866667 28.2725833,7.12191667 Z" id="Path" fill="#3359DB"></path>
                    <path d="M19.9785833,22.1866111 C19.8738611,22.2583056 19.7546389,22.2929444 19.636625,22.2929444 C19.4445,22.2929444 19.2555972,22.2011111 19.1383889,22.0311389 L15.7876806,17.1575278 C15.0566389,17.5035139 14.2583333,17.6875833 13.4471389,17.6875833 C11.5105833,17.6875833 9.75608333,16.700375 8.75356944,15.0469722 C7.99191667,13.7955417 7.76354167,12.3205694 8.11073611,10.8955417 C8.45793056,9.47091667 9.33920833,8.26661111 10.5914444,7.50536111 C11.451375,6.98295833 12.4349583,6.70705556 13.4362639,6.70705556 C15.3732222,6.70705556 17.1293333,7.69386111 18.1342639,9.34726389 C18.8959167,10.6003056 19.1234861,12.074875 18.7762917,13.4990972 C18.4798472,14.7146806 17.7915,15.7667361 16.8179861,16.5231528 L20.1340556,21.3468194 C20.3229583,21.6215139 20.2532778,21.9973056 19.9785833,22.1866111 Z M17.1019444,9.97479167 C16.3181389,8.6855 14.9474861,7.91579167 13.4362639,7.91579167 C12.6560833,7.91579167 11.8891944,8.130875 11.2185694,8.53848611 C10.2422361,9.13218056 9.55509722,10.0710556 9.28443056,11.1823194 C9.01336111,12.2935833 9.19179167,13.4431111 9.78548611,14.4198472 C10.5676806,15.7095417 11.9363194,16.47925 13.4467361,16.47925 C14.2273194,16.47925 14.9950139,16.2633611 15.6664444,15.8553472 C16.6439861,15.2616528 17.331125,14.3231806 17.6021944,13.2123194 C17.8732639,12.1022639 17.6960417,10.9519306 17.1019444,9.97479167 Z" id="Combined-Shape" stroke="#FFFFFF" fill="#FFFFFF"></path>
                </g>
            </g>
        </g>
    </g>
</svg>
