<?xml version="1.0" encoding="UTF-8"?>
<svg width="17px" height="17px" viewBox="0 0 17 17" version="1.1" xmlns="http://www.w3.org/2000/svg" xmlns:xlink="http://www.w3.org/1999/xlink">
    <!-- Generator: sketchtool 52.6 (67491) - http://www.bohemiancoding.com/sketch -->
    <title>5DC1832F-342D-4157-BB90-E72FBE079DCE</title>
    <desc>Created with sketchtool.</desc>
    <g id="Web-App" stroke="none" stroke-width="1" fill="none" fill-rule="evenodd">
        <g id="Cabs-&gt;-Pending-Requests-Copy-2" transform="translate(-522.000000, -313.000000)" fill="#FF5359" fill-rule="nonzero">
            <g id="Modal" transform="translate(500.000000, 248.000000)">
                <g id="Delete" transform="translate(22.000000, 62.000000)">
                    <g id="ic_delete" transform="translate(0.000000, 3.000000)">
                        <path d="M12.6994595,0 L4.28216216,0 C1.91135135,0 0,1.86154251 0,4.1705712 L0,9.3614109 C0,11.6704396 1.91135135,13.5319821 4.28216216,13.5319821 L5.45837838,13.5319821 L7.11243243,16.2347986 C7.7372973,17.2550671 9.2627027,17.2550671 9.88756757,16.2347986 L11.5416216,13.5319821 L12.7178378,13.5319821 C15.0886486,13.5319821 17,11.6704396 17,9.3614109 L17,4.1705712 C16.9816216,1.86154251 15.0702703,0 12.6994595,0 Z M11.6702703,8.50223743 C12.0562162,8.87812582 12.0562162,9.48670703 11.6702703,9.86259542 C11.4681081,10.0594893 11.2291892,10.1489866 10.9718919,10.1489866 C10.7145946,10.1489866 10.4572973,10.0594893 10.2735135,9.86259542 L8.49081081,8.12634904 L6.70810811,9.86259542 C6.50594595,10.0594893 6.26702703,10.1489866 6.00972973,10.1489866 C5.75243243,10.1489866 5.49513514,10.0594893 5.31135135,9.86259542 C4.92540541,9.48670703 4.92540541,8.87812582 5.31135135,8.50223743 L7.09405405,6.76599105 L5.31135135,5.02974467 C4.92540541,4.65385628 4.92540541,4.04527507 5.31135135,3.66938668 C5.6972973,3.29349829 6.32216216,3.29349829 6.70810811,3.66938668 L8.49081081,5.40563306 L10.2735135,3.66938668 C10.6594595,3.29349829 11.2843243,3.29349829 11.6702703,3.66938668 C12.0562162,4.04527507 12.0562162,4.65385628 11.6702703,5.02974467 L9.88756757,6.76599105 L11.6702703,8.50223743 Z" id="Shape"></path>
                    </g>
                </g>
            </g>
        </g>
    </g>
</svg>