<?xml version="1.0" encoding="UTF-8"?>
<svg width="20px" height="20px" viewBox="0 0 20 20" version="1.1" xmlns="http://www.w3.org/2000/svg" xmlns:xlink="http://www.w3.org/1999/xlink">
    <!-- Generator: Sketch 52.6 (67491) - http://www.bohemiancoding.com/sketch -->
    <title>ic_edit</title>
    <desc>Created with Sketch.</desc>
    <g id="Web-App" stroke="none" stroke-width="1" fill="none" fill-rule="evenodd">
        <g id="Cabs-&gt;-Pending-Requests-Copy-2" transform="translate(-520.000000, -276.000000)" fill="#3359DB">
            <g id="Modal" transform="translate(500.000000, 248.000000)">
                <g id="Edit" transform="translate(20.000000, 28.000000)">
                    <g id="ic_edit">
                        <path d="M19.4971528,4.91055556 C19.0749306,2.64416667 17.2954861,0.911111111 15.071875,0.488611111 C13.381875,0.155833333 11.6690972,0 10.0015972,0 C8.28909722,0 6.57659722,0.155833333 4.886875,0.488611111 C2.61854167,0.911111111 0.906319444,2.66638889 0.483541667,4.88833333 C-0.161180556,8.26555556 -0.161180556,11.71 0.483541667,15.065 C0.906041667,17.3538889 2.66270833,19.0647222 4.886875,19.4872222 C6.57659722,19.8422222 8.28909722,19.9980556 10.0015972,19.9980556 C11.7138194,19.9980556 13.4035417,19.8422222 15.0938194,19.5091667 C17.3624306,19.0647222 19.0749306,17.3316667 19.4971528,15.0875 C20.164375,11.7097222 20.164375,8.26555556 19.4971528,4.91055556 Z" id="Path" fill-opacity="0.0481770833"></path>
                        <path d="M13.8363693,5.93362069 C13.2818865,5.37844828 12.3143003,5.37844828 11.7591279,5.93362069 L6.83292099,10.8598276 C6.78602443,10.9067241 6.75223133,10.9660345 6.73636926,11.0301724 L6.21774857,13.1067241 C6.18671409,13.2315517 6.22326581,13.3639655 6.3143003,13.4556897 C6.38395547,13.5253448 6.47774857,13.5632759 6.57361064,13.5632759 C6.60326581,13.5632759 6.63292099,13.5598276 6.66257616,13.5522414 L8.73981754,13.032931 C8.80464512,13.017069 8.86326581,12.9832759 8.91016237,12.9363793 L13.8363693,8.01017241 C14.1136106,7.73293103 14.2667141,7.36396552 14.2667141,6.97155172 C14.2667141,6.57913793 14.1143003,6.21086207 13.8363693,5.93362069 Z M8.46326581,12.3453448 L7.07843823,12.6915517 L7.42464512,11.3067241 L11.4998175,7.23155172 L12.5384382,8.27017241 L8.46326581,12.3453448 Z M13.3170589,7.49086207 L13.0577486,7.75017241 L12.0191279,6.71155172 L12.2784382,6.45224138 C12.5556796,6.175 13.0398175,6.175 13.3170589,6.45224138 C13.4556796,6.59086207 13.5322313,6.775 13.5322313,6.97155172 C13.5322313,7.16810345 13.4556796,7.35224138 13.3170589,7.49086207 Z" id="Shape" fill-rule="nonzero"></path>
                    </g>
                </g>
            </g>
        </g>
    </g>
</svg>