<?xml version="1.0" encoding="UTF-8"?>
<svg width="13px" height="13px" viewBox="0 0 13 13" version="1.1" xmlns="http://www.w3.org/2000/svg" xmlns:xlink="http://www.w3.org/1999/xlink">
    <!-- Generator: sketchtool 52.6 (67491) - http://www.bohemiancoding.com/sketch -->
    <title>54BB5F86-2180-486B-90CD-E8090C511591</title>
    <desc>Created with sketchtool.</desc>
    <g id="Web-App" stroke="none" stroke-width="1" fill="none" fill-rule="evenodd">
        <g id="Cabs-&gt;-Pending-Requests" transform="translate(-644.000000, -153.000000)" fill="#FFFFFF" stroke="#FFFFFF">
            <g id="Group-2-Copy" transform="translate(629.000000, 116.000000)">
                <g id="filter" transform="translate(1.000000, 26.000000)">
                    <g id="inline-icon" transform="translate(9.000000, 7.000000)">
                        <g id="ic_filter_batch" transform="translate(5.000000, 4.000000)">
                            <path d="M6.71751442,1.35355339 C6.52225228,1.15829124 6.20566979,1.15829124 6.01040764,1.35355339 L1.06066017,6.30330086 C0.865398026,6.498563 0.865398026,6.81514549 1.06066017,7.01040764 L6.01040764,11.9601551 C6.20566979,12.1554173 6.52225228,12.1554173 6.71751442,11.9601551 L11.6672619,7.01040764 C11.862524,6.81514549 11.862524,6.498563 11.6672619,6.30330086 L6.71751442,1.35355339 Z M6.5,8.5 C5.3954305,8.5 4.5,7.6045695 4.5,6.5 C4.5,5.3954305 5.3954305,4.5 6.5,4.5 C7.6045695,4.5 8.5,5.3954305 8.5,6.5 C8.5,7.6045695 7.6045695,8.5 6.5,8.5 Z" id="Combined-Shape"></path>
                        </g>
                    </g>
                </g>
            </g>
        </g>
    </g>
</svg>