<?xml version="1.0" encoding="UTF-8"?>
<svg width="10px" height="12px" viewBox="0 0 10 12" version="1.1" xmlns="http://www.w3.org/2000/svg" xmlns:xlink="http://www.w3.org/1999/xlink">
    <!-- Generator: sketchtool 52.6 (67491) - http://www.bohemiancoding.com/sketch -->
    <title>AE80CFC1-DEE3-411D-914F-27535864DB66</title>
    <desc>Created with sketchtool.</desc>
    <g id="Web-App" stroke="none" stroke-width="1" fill="none" fill-rule="evenodd" stroke-linecap="round" stroke-linejoin="round">
        <g id="Cabs-&gt;-Pending-Requests" transform="translate(-323.000000, -155.000000)" fill="#FFFFFF" stroke="#FFFFFF" stroke-width="0.7">
            <g id="Group-2" transform="translate(308.000000, 116.000000)">
                <g id="filter" transform="translate(1.000000, 26.000000)">
                    <g id="inline-icon" transform="translate(8.000000, 8.000000)">
                        <g id="ic_filter_location" transform="translate(7.000000, 6.000000)">
                            <path d="M4,-0.35 L4.17181491,-0.35 C6.61450987,-0.35 8.35,1.62766576 8.35,4.2129987 C8.35,4.82272093 8.1179176,5.50300886 7.69342213,6.24704309 C7.33585014,6.87377723 6.8489688,7.53260056 6.26469494,8.20797542 C5.81959882,8.72247171 5.34361753,9.21729725 4.86765326,9.67519204 C4.58166562,9.95032246 4.35841157,10.1527335 4.22898775,10.2646972 L4,10.4627929 L3.77101225,10.2646972 C3.64158843,10.1527335 3.41833438,9.95032246 3.13234674,9.67519204 C2.65638247,9.21729725 2.18040118,8.72247171 1.73530506,8.20797542 C1.1510312,7.53260056 0.664149857,6.87377723 0.306577865,6.24704309 C-0.117917598,5.50300886 -0.35,4.82272093 -0.35,4.2129987 C-0.35,1.66297901 1.5298902,-0.35 4,-0.35 Z M4,6.07857143 C5.21391359,6.07857143 6.19545455,5.11455799 6.19545455,3.92857143 C6.19545455,2.74258487 5.21391359,1.77857143 4,1.77857143 C2.78608641,1.77857143 1.80454545,2.74258487 1.80454545,3.92857143 C1.80454545,5.11455799 2.78608641,6.07857143 4,6.07857143 Z" id="Combined-Shape"></path>
                        </g>
                    </g>
                </g>
            </g>
        </g>
    </g>
</svg>