<?xml version="1.0" encoding="UTF-8"?>
<svg width="10px" height="8px" viewBox="0 0 10 8" version="1.1" xmlns="http://www.w3.org/2000/svg" xmlns:xlink="http://www.w3.org/1999/xlink">
    <!-- Generator: sketchtool 52.6 (67491) - http://www.bohemiancoding.com/sketch -->
    <title>35C4C2DB-74DC-4EAC-A673-450AE353DD34</title>
    <desc>Created with sketchtool.</desc>
    <g id="Web-App" stroke="none" stroke-width="1" fill="none" fill-rule="evenodd">
        <g id="Cabs-&gt;-Pending-Requests" transform="translate(-339.000000, -272.000000)" fill="#B9C5D1">
            <g id="Group-2" transform="translate(306.000000, 210.000000)">
                <g id="Cab-card">
                    <g id="Reg" transform="translate(25.000000, 54.000000)">
                        <g id="ic_reg" transform="translate(8.000000, 8.000000)">
                            <path d="M6.612,0.108 C7.32,0.24 7.776,0.528 7.956,0.996 C8.172,1.608 8.4,2.232 8.616,2.856 C8.808,2.868 8.988,2.868 9.168,2.88 C9.432,3.108 9.696,3.468 9.54,3.84 C9.372,3.84 9.144,3.84 8.964,3.84 C9.252,4.224 9.108,6.78 9.108,7.56 C9.108,7.728 8.976,7.86 8.808,7.86 L7.392,7.86 C7.236,7.86 7.104,7.728 7.104,7.56 L7.104,6.72 L2.484,6.72 L2.484,7.56 C2.484,7.728 2.352,7.86 2.184,7.86 L0.78,7.86 C0.612,7.86 0.48,7.728 0.48,7.56 C0.48,6.78 0.336,4.224 0.612,3.84 C0.444,3.84 0.216,3.84 0.048,3.84 C-0.108,3.468 0.156,3.108 0.42,2.88 C0.6,2.868 0.78,2.868 0.972,2.856 C1.188,2.232 1.416,1.608 1.632,0.996 C1.812,0.528 2.268,0.24 2.976,0.108 C4.176,-0.036 5.4,-0.036 6.612,0.108 Z M7.908,2.82 C7.728,2.232 7.536,2.644 7.344,2.056 C7.2,1.84 6.984,1.684 6.636,1.648 C5.436,1.48 4.152,1.48 2.94,1.648 C2.604,1.684 2.388,1.84 2.244,2.056 C2.052,2.644 1.86,2.232 1.68,2.82 C3.66,3.276 5.928,3.276 7.908,2.82 Z M0.996,4.908 C0.996,4.704 0.996,4.5 0.996,4.296 C1.128,4.152 1.32,4.092 1.608,4.152 C2.028,4.356 2.448,4.548 2.88,4.74 C2.964,4.932 2.952,5.088 2.76,5.148 C1.884,5.232 1.176,5.22 0.996,4.908 Z M8.592,4.908 C8.592,4.704 8.592,4.5 8.592,4.296 C8.46,4.152 8.268,4.092 7.98,4.152 C7.56,4.356 7.128,4.548 6.708,4.74 C6.624,4.932 6.636,5.088 6.816,5.148 C7.704,5.232 8.412,5.22 8.592,4.908 Z" id="Shape"></path>
                        </g>
                    </g>
                </g>
            </g>
        </g>
    </g>
</svg>