<svg xmlns="http://www.w3.org/2000/svg" x="0px" y="0px"
width="100" height="100"
viewBox="0 0 192 192"
style=" fill:#000000;"><g transform="translate(1.92,1.92) scale(0.98,0.98)"><g fill="none" fill-rule="nonzero" stroke="none" stroke-width="none" stroke-linecap="butt" stroke-linejoin="none" stroke-miterlimit="10" stroke-dasharray="" stroke-dashoffset="0" font-family="none" font-weight="none" font-size="none" text-anchor="none" style="mix-blend-mode: normal"><g fill="#f5a623" stroke="#f5a623" stroke-width="4" stroke-linejoin="round"><g id="surface1 1"><path d="M190.41346,75.08654l-46.26923,42.11538l12.92308,61.55769c0.37501,1.87501 -0.34615,3.80769 -1.875,4.93269c-1.52884,1.125 -3.57692,1.21154 -5.22115,0.25961l-53.97116,-31.41346l-53.97116,31.41346c-0.75,0.46154 -1.58653,0.66346 -2.39423,0.66346c-1.00962,0 -1.99039,-0.31731 -2.82693,-0.92308c-1.52884,-1.125 -2.25,-3.05769 -1.875,-4.93269l12.92308,-61.52884l-46.26923,-42.11538c-1.41346,-1.29808 -1.93269,-3.28846 -1.35577,-5.10577c0.57692,-1.81731 2.16346,-3.11538 4.06731,-3.31731l61.96154,-6.60577l25.35577,-57.46154c1.52884,-3.49039 7.21154,-3.49039 8.76923,0l25.35577,57.46154l61.96154,6.60577c1.875,0.20192 3.49038,1.5 4.06731,3.31731c0.57692,1.81731 0.0577,3.80769 -1.35577,5.07692z"></path></g></g><path d="M0,192v-192h192v192z" fill="none" stroke="none" stroke-width="1" stroke-linejoin="miter"></path><g fill="#f5a623" stroke="none" stroke-width="1" stroke-linejoin="miter"><g id="surface1"><path d="M191.76923,70.00962c-0.57692,-1.81731 -2.19231,-3.11538 -4.06731,-3.31731l-61.96154,-6.60577l-25.35577,-57.46154c-1.55769,-3.49039 -7.24039,-3.49039 -8.76923,0l-25.35577,57.46154l-61.96154,6.60577c-1.90384,0.20192 -3.49038,1.5 -4.06731,3.31731c-0.57692,1.81731 -0.05769,3.80769 1.35577,5.10577l46.26923,42.11538l-12.92308,61.52884c-0.375,1.87501 0.34615,3.80769 1.875,4.93269c0.83654,0.60577 1.81731,0.92308 2.82693,0.92308c0.80769,0 1.64423,-0.20192 2.39423,-0.66346l53.97116,-31.41346l53.97116,31.41346c1.64423,0.95193 3.69231,0.86539 5.22115,-0.25961c1.52884,-1.125 2.25,-3.05769 1.875,-4.93269l-12.92308,-61.55769l46.26923,-42.11538c1.41347,-1.26923 1.93269,-3.25961 1.35577,-5.07692z"></path></g></g><path d="" fill="none" stroke="none" stroke-width="1" stroke-linejoin="miter"></path><path d="" fill="none" stroke="none" stroke-width="1" stroke-linejoin="miter"></path></g></g></svg>
