<?xml version="1.0" encoding="UTF-8"?>
<svg width="73px" height="86px" viewBox="0 0 73 86" version="1.1" xmlns="http://www.w3.org/2000/svg" xmlns:xlink="http://www.w3.org/1999/xlink">
    <!-- Generator: sketchtool 52.5 (67469) - http://www.bohemiancoding.com/sketch -->
    <title>5271389B-120F-4762-8D21-63B15984D96F</title>
    <desc>Created with sketchtool.</desc>
    <defs>
        <path d="M36.1061798,-9.09494702e-13 C16.1706832,-9.09494702e-13 0.0097701189,16.2120048 0.0097701189,36.2105263 C0.0097701189,56.2077895 36.1061798,86 36.1061798,86 C36.1061798,86 72.2025895,56.2077895 72.2025895,36.2105263 C72.2025895,16.2120048 56.0416764,-9.09494702e-13 36.1061798,-9.09494702e-13 L36.1061798,-9.09494702e-13 Z" id="path-1"></path>
    </defs>
    <g id="Web-App" stroke="none" stroke-width="1" fill="none" fill-rule="evenodd">
        <g id="Trips-&gt;-Pending-Requests-&gt;-No-Trips" transform="translate(-760.000000, -234.000000)">
            <g id="Message" transform="translate(687.000000, 234.000000)">
                <g id="Combined-Shape" transform="translate(73.000000, 0.000000)">
                    <mask id="mask-2" fill="white">
                        <use xlink:href="#path-1"></use>
                    </mask>
                    <use id="Mask" fill="#808FA3" xlink:href="#path-1"></use>
                    <path d="M48.4045527,47.2795182 L22.4848734,47.249511 C22.0558405,50.9101418 18.9550218,53.75 15.1935358,53.75 C11.3841629,53.75 8.25238604,50.8373739 7.88711559,47.1093071 C3.68686331,46.93813 0.543295697,45.3697335 -1.41979066,42.3958539 L0.578588121,41.0662328 C2.0942348,43.362286 4.54024423,44.5785869 8.04124098,44.7068166 C8.79562787,41.4413663 11.7115091,39.0078068 15.1935358,39.0078068 C18.7236206,39.0078068 21.6718244,41.5090046 22.3758268,44.8424944 L48.4051968,44.8726287 C48.9782495,41.3750923 52.0035235,38.7069458 55.6495176,38.7069458 C59.2863477,38.7069458 62.3055742,41.3616969 62.8894709,44.8462722 L70.3592545,44.8746066 L70.3501967,47.2814781 L62.898729,47.2532132 C62.338208,50.7656 59.3060133,53.4491389 55.6495176,53.4491389 C52.0021553,53.4491389 48.9759791,50.7789895 48.4045527,47.2795182 Z M0.092580964,32.9693722 L0.334985074,30.5748186 C8.05416837,31.3624461 12.623276,30.371749 14.112796,27.9112964 C17.0474738,23.0636704 23.4025979,21.5 37.8942632,21.5 C43.9982879,21.5 47.8195697,22.8760827 51.2609302,25.6052696 C51.8125806,26.0427586 53.5187881,27.5193253 53.8587302,27.7890684 C55.1119697,28.7835104 56.0518258,29.1923611 57.3078013,29.1923611 C61.2557385,29.1923611 66.4785939,29.6557558 72.9877248,30.5805229 L72.6518126,32.9636679 C66.2446078,32.0533817 61.1261515,31.5992497 57.3078013,31.5992497 C55.4381494,31.5992497 54.0127736,30.979191 52.3721664,29.677374 C51.9787433,29.3651939 50.2728645,27.8889115 49.7748768,27.4939801 C46.7502138,25.0952571 43.4502011,23.9068887 37.8942632,23.9068887 C24.2307262,23.9068887 18.4868954,25.3201511 16.1614745,29.1613805 C14.0335151,32.6764346 8.65372122,33.8429088 0.092580964,32.9693722 Z M66.9197178,37.8350624 C65.5330109,37.4936357 64.7103093,36.8263927 64.4516129,35.8333333 L74,35.8656807 L73.9902401,38.181877 C70.6632655,38.2920939 68.3064247,38.1764891 66.9197178,37.8350624 Z M15.1935358,51.3431113 C17.924374,51.3431113 20.1381558,49.1205597 20.1381558,46.3789034 C20.1381558,43.6372471 17.924374,41.4146955 15.1935358,41.4146955 C12.4626976,41.4146955 10.2489158,43.6372471 10.2489158,46.3789034 C10.2489158,49.1205597 12.4626976,51.3431113 15.1935358,51.3431113 Z M55.6495176,51.0422502 C58.3803558,51.0422502 60.5941375,48.8196987 60.5941375,46.0780423 C60.5941375,43.336386 58.3803558,41.1138344 55.6495176,41.1138344 C52.9186793,41.1138344 50.7048976,43.336386 50.7048976,46.0780423 C50.7048976,48.8196987 52.9186793,51.0422502 55.6495176,51.0422502 Z M23.4831561,63.802184 C22.9168212,63.2506288 22.903663,62.3431882 23.4537664,61.7753587 C24.0038699,61.2075292 46.4160193,61.2075292 46.9661228,61.7753587 C47.5162262,62.3431882 47.503068,63.2506288 46.9367331,63.802184 C43.1127287,67.5263924 39.19791,69.4327187 35.2099446,69.4327187 C31.2219792,69.4327187 27.3071605,67.5263924 23.4831561,63.802184 Z" stroke="#E0E8EA" stroke-width="2.4" fill="#E0E8EA" fill-rule="nonzero" mask="url(#mask-2)"></path>
                </g>
            </g>
        </g>
    </g>
</svg>