<?xml version="1.0" encoding="UTF-8"?>
<svg width="102px" height="34px" viewBox="0 0 102 34" version="1.1" xmlns="http://www.w3.org/2000/svg" xmlns:xlink="http://www.w3.org/1999/xlink">
    <!-- Generator: sketchtool 52.5 (67469) - http://www.bohemiancoding.com/sketch -->
    <title>FE84AF0C-CFED-4D98-8E9F-5DD66ED52BBF</title>
    <desc>Created with sketchtool.</desc>
    <defs>
        <path d="M14.5547855,-8.58967218e-13 C6.51857458,-8.58967218e-13 0.00393843892,6.40939727 0.00393843892,14.3157895 C0.00393843892,22.2216842 14.5547855,34 14.5547855,34 C14.5547855,34 29.1056326,22.2216842 29.1056326,14.3157895 C29.1056326,6.40939727 22.5909965,-8.58967218e-13 14.5547855,-8.58967218e-13 L14.5547855,-8.58967218e-13 Z" id="path-1"></path>
    </defs>
    <g id="Web-App" stroke="none" stroke-width="1" fill="none" fill-rule="evenodd">
        <g id="Dashboard" transform="translate(-65.000000, -44.000000)">
            <g id="Tembea-Logo" transform="translate(65.000000, 44.000000)">
                <g>
                    <g id="Combined-Shape">
                        <mask id="mask-2" fill="white">
                            <use xlink:href="#path-1"></use>
                        </mask>
                        <use id="Mask" fill="#3359DB" xlink:href="#path-1"></use>
                        <path d="M19.5123908,18.6919028 L9.06389193,18.6800395 C8.89094408,20.1272655 7.64097109,21.25 6.12467614,21.25 C4.58907753,21.25 3.32662503,20.0984969 3.1793804,18.6246102 C1.48621393,18.5569356 0.219008302,17.9368718 -0.572332745,16.761152 L0.233235069,16.2354878 C0.844208384,17.1432297 1.83022081,17.6240929 3.24150983,17.6747884 C3.54561104,16.3837962 4.72103392,15.421691 6.12467614,15.421691 C7.54769097,15.421691 8.73614337,16.4105368 9.01993416,17.7284282 L19.5126504,17.7403418 C19.743654,16.3575947 20.9631742,15.302746 22.4329133,15.302746 C23.8989582,15.302746 25.1160404,16.3522987 25.3514155,17.7299214 L28.3625648,17.7411233 L28.3589135,18.6926772 L25.3551476,18.6815027 C25.1291958,20.0701209 23.9068857,21.131055 22.4329133,21.131055 C20.9626228,21.131055 19.742739,20.0754146 19.5123908,18.6919028 Z M0.0373203642,13.0344028 L0.135036045,12.0877189 C3.24672113,12.3991064 5.08857713,12.0074355 5.68901851,11.0346985 C6.87201844,9.11819527 9.43383673,8.5 15.2755815,8.5 C17.7361789,8.5 19.2765784,9.04403269 20.6638275,10.1230135 C20.8862036,10.2959743 21.5739941,10.8797332 21.7110284,10.9863758 C22.2162226,11.3795272 22.5950886,11.5411659 23.1013857,11.5411659 C24.6928413,11.5411659 26.7982299,11.7243684 29.42213,12.089974 L29.2867203,13.0321476 C26.7039077,12.672267 24.6406034,12.4927265 23.1013857,12.4927265 C22.3477091,12.4927265 21.7731249,12.247587 21.1117787,11.7329152 C20.9531856,11.6094951 20.2655276,11.0258487 20.0647835,10.869713 C18.8455096,9.92138066 17.5152393,9.45156061 15.2755815,9.45156061 C9.76766405,9.45156061 7.45226464,10.0102923 6.51486267,11.5289178 C5.65705954,12.9185903 3.48840728,13.3797545 0.0373203642,13.0344028 Z M26.9760523,14.9580479 C26.417056,14.8230653 26.0854162,14.5592715 25.9811329,14.1666667 L29.8301895,14.1794551 L29.8262552,15.0951607 C28.4851163,15.1387348 27.5350487,15.0930306 26.9760523,14.9580479 Z M6.12467626,20.2984394 C7.22550628,20.2984394 8.11790533,19.4197562 8.11790533,18.3358455 C8.11790533,17.2519348 7.22550628,16.3732516 6.12467626,16.3732516 C5.02384624,16.3732516 4.13144718,17.2519348 4.13144718,18.3358455 C4.13144718,19.4197562 5.02384624,20.2984394 6.12467626,20.2984394 Z M22.4329134,20.1794944 C23.5337434,20.1794944 24.4261425,19.3008112 24.4261425,18.2169005 C24.4261425,17.1329898 23.5337434,16.2543066 22.4329134,16.2543066 C21.3320834,16.2543066 20.4396843,17.1329898 20.4396843,18.2169005 C20.4396843,19.3008112 21.3320834,20.1794944 22.4329134,20.1794944 Z M9.46631057,25.2241191 C9.23801492,25.0060624 9.2327107,24.6473068 9.45446327,24.4228161 C9.67621585,24.1983253 10.041052,24.1931095 10.2693477,24.4111662 C11.611634,25.6932516 12.9173121,26.3168112 14.193504,26.3168112 C15.4696959,26.3168112 16.775374,25.6932516 18.1176603,24.4111662 C18.345956,24.1931095 18.7107921,24.1983253 18.9325447,24.4228161 C19.1542973,24.6473068 19.1489931,25.0060624 18.9206974,25.2241191 C17.3792005,26.6964806 15.8010954,27.4501445 14.193504,27.4501445 C12.5859126,27.4501445 11.0078075,26.6964806 9.46631057,25.2241191 Z" stroke="#FFAF30" fill="#FFAF30" fill-rule="nonzero" mask="url(#mask-2)"></path>
                    </g>
                    <path d="M43.2131359,25.4999997 L41.8949156,25.4999997 C39.8419495,25.4999997 38.891102,24.0549997 38.891102,22.5037496 L38.891102,16.3837496 L37.6377122,16.3837496 L37.6377122,14.7262496 L38.891102,14.7262496 L38.891102,11.6449996 L41.0953393,11.6449996 L41.0953393,14.7262496 L43.2131359,14.7262496 L43.2131359,16.3837496 L41.0953393,16.3837496 L41.0953393,22.3974996 C41.0953393,23.1837497 41.4843224,23.6512497 42.3055088,23.6512497 L43.2131359,23.6512497 L43.2131359,25.4999997 Z M53.405932,20.7399994 L46.2961865,20.7399994 C46.2961865,22.6099994 47.2686441,23.7574994 49.0838983,23.7574994 C50.3156779,23.7574994 50.963983,23.4174994 51.741949,22.6524994 L53.14661,23.9487493 C52.0228812,25.0537493 50.963983,25.6274993 49.0406779,25.6274993 C46.2961865,25.6274993 44.1135595,24.2037493 44.1135595,20.1024994 C44.1135595,16.5962495 45.9504238,14.5987495 48.7597458,14.5987495 C51.6987287,14.5987495 53.405932,16.6812495 53.405932,19.8262494 L53.405932,20.7399994 Z M51.2233048,19.2312495 C51.1800845,18.5724995 51.1368641,18.2324995 50.9207624,17.7649995 C50.5533896,16.9574995 49.7970336,16.4049994 48.7597455,16.4049994 C47.7008472,16.4049994 46.9444913,16.9574995 46.5771184,17.7649995 C46.3610167,18.2324995 46.3177964,18.5724995 46.2961862,19.2312495 L51.2233048,19.2312495 Z M70.6436434,25.4999991 L68.4394062,25.4999991 L68.4394062,18.9337494 C68.4394062,17.2549994 67.4669487,16.5324995 66.2351691,16.5324995 C65.0466098,16.5324995 63.9661014,17.2762494 63.9661014,18.8274994 L63.9661014,25.4999991 L61.7618642,25.4999991 L61.7618642,18.9337494 C61.7618642,17.2549994 60.7894066,16.5324995 59.557627,16.5324995 C58.3258474,16.5324995 57.2885593,17.2762494 57.2885593,18.9337494 L57.2885593,25.4999991 L55.0843221,25.4999991 L55.0843221,14.7262495 L57.2453389,14.7262495 L57.2453389,15.8099995 C57.9800847,15.0237495 59.0605931,14.5987495 60.1627117,14.5987495 C61.5241523,14.5987495 62.5830506,15.1299995 63.274576,16.1712495 C64.1605929,15.1087495 65.2627115,14.5987495 66.7105928,14.5987495 C67.8343215,14.5987495 68.8283893,14.9599995 69.4766943,15.5762495 C70.3194909,16.3837495 70.6436434,17.4037494 70.6436434,18.6149994 L70.6436434,25.4999991 Z M81.7656775,20.1025 C81.7656775,21.8875001 81.5927961,23.6087501 80.5338979,24.6712502 C79.9288132,25.2662502 78.9563556,25.6275002 77.854237,25.6275002 C76.6872879,25.6275002 75.7796608,25.3300002 74.9584744,24.3525002 L74.9584744,25.5000002 L72.7974576,25.5000002 L72.7974576,10.3699996 L75.0016948,10.3699996 L75.0016948,15.8099998 C75.801271,14.8749998 76.7088981,14.5987497 77.8758472,14.5987497 C78.9779658,14.5987497 79.9288132,14.9599998 80.5338979,15.5549998 C81.5927961,16.6174998 81.7656775,18.3387499 81.7656775,20.1025 Z M79.5614424,20.1024996 C79.5614424,18.1899997 79.2805102,16.5324997 77.2923747,16.5324997 C75.2826289,16.5324997 75.0016967,18.1899997 75.0016967,20.1024996 C75.0016967,22.0149996 75.2826289,23.6937496 77.2923747,23.6937496 C79.2805102,23.6937496 79.5614424,22.0149996 79.5614424,20.1024996 Z M92.2394073,20.7399994 L85.1296618,20.7399994 C85.1296618,22.6099994 86.1021194,23.7574994 87.9173735,23.7574994 C89.1491531,23.7574994 89.7974582,23.4174994 90.5754243,22.6524994 L91.9800852,23.9487493 C90.8563565,25.0537493 89.7974582,25.6274993 87.8741532,25.6274993 C85.1296618,25.6274993 82.9470347,24.2037493 82.9470347,20.1024994 C82.9470347,16.5962495 84.7838991,14.5987495 87.593221,14.5987495 C90.5322039,14.5987495 92.2394073,16.6812495 92.2394073,19.8262494 L92.2394073,20.7399994 Z M90.0567791,19.2312495 C90.0135588,18.5724995 89.9703385,18.2324995 89.7542368,17.7649995 C89.3868639,16.9574995 88.630508,16.4049994 87.5932198,16.4049994 C86.5343216,16.4049994 85.7779656,16.9574995 85.4105928,17.7649995 C85.1944911,18.2324995 85.1512707,18.5724995 85.1296606,19.2312495 L90.0567791,19.2312495 Z M101.978391,25.4999993 L99.8173744,25.4999993 L99.8173744,24.5224993 C99.0177981,25.3087493 98.2614422,25.6274993 96.9000016,25.6274993 C95.538561,25.6274993 94.6309339,25.3087493 93.9610186,24.6499993 C93.3991542,24.0762493 93.0966119,23.2474994 93.0966119,22.3337494 C93.0966119,20.5274994 94.3716118,19.2312494 96.9000016,19.2312494 L99.774154,19.2312494 L99.774154,18.4662495 C99.774154,17.0849995 99.1042388,16.4474995 97.3754253,16.4474995 C96.2084762,16.4474995 95.6033915,16.7449995 94.9766966,17.5099995 L93.5504254,16.1712495 C94.5661034,14.9812495 95.6250016,14.5987495 97.461866,14.5987495 C100.48729,14.5987495 101.978391,15.8737495 101.978391,18.2962495 L101.978391,25.4999993 Z M99.7741539,21.6112491 L99.7741539,20.7399991 L97.2457641,20.7399991 C95.9059336,20.7399991 95.2360183,21.2924991 95.2360183,22.2912492 C95.2360183,23.2899992 95.8627133,23.8212492 97.3105946,23.8212492 C98.0885607,23.8212492 98.7152556,23.7362492 99.2987302,23.2049992 C99.6444929,22.8862492 99.7741539,22.3762492 99.7741539,21.6112491 Z" id="tembea" fill="#3359DB"></path>
                </g>
            </g>
        </g>
    </g>
</svg>