<?xml version="1.0" encoding="UTF-8"?>
<svg width="28px" height="23px" viewBox="0 0 28 23" version="1.1" xmlns="http://www.w3.org/2000/svg" xmlns:xlink="http://www.w3.org/1999/xlink">
    <!-- Generator: sketchtool 52.5 (67469) - http://www.bohemiancoding.com/sketch -->
    <title>2E32A2F0-0B55-4DBC-9245-714B8855133C</title>
    <desc>Created with sketchtool.</desc>
    <g id="Web-App" stroke="none" stroke-width="1" fill="none" fill-rule="evenodd">
        <g id="Routes-&gt;-Route-Requests" transform="translate(-62.000000, -203.000000)">
            <g id="Sidebar">
                <g id="2-Routes" transform="translate(33.000000, 195.000000)">
                    <g id="Routes">
                        <g id="ic_active_routes" transform="translate(29.000000, 8.000000)">
                            <g>
                                <g>
                                    <path d="M5.5,1 L5.7362455,1 C8.90428641,1 11,3.64071328 11,6.89819818 C11,10.1554781 5.5,15 5.5,15 C5.5,15 0,10.1554781 0,6.89819818 C0,3.64071328 2.33195909,1 5.5,1 Z M5.5,10 C7.43299662,10 9,8.43299662 9,6.5 C9,4.56700338 7.43299662,3 5.5,3 C3.56700338,3 2,4.56700338 2,6.5 C2,8.43299662 3.56700338,10 5.5,10 Z" id="Combined-Shape" fill="#3359DB"></path>
                                    <path d="M22.5,8 L22.7362455,8 C25.9042864,8 28,10.6407133 28,13.8981982 C28,17.1554781 22.5,22 22.5,22 C22.5,22 17,17.1554781 17,13.8981982 C17,10.6407133 19.3319591,8 22.5,8 Z M22.5,17 C24.4329966,17 26,15.4329966 26,13.5 C26,11.5670034 24.4329966,10 22.5,10 C20.5670034,10 19,11.5670034 19,13.5 C19,15.4329966 20.5670034,17 22.5,17 Z" id="Combined-Shape" fill="#3359DB"></path>
                                    <path d="M21.7698814,3.79330304 L21.7698814,2.89631833 C21.7698814,2.509719 22.0832821,2.19631833 22.4698814,2.19631833 C22.8564807,2.19631833 23.1698814,2.509719 23.1698814,2.89631833 L23.1698814,6.52543154 L19.0375206,6.10649485 C18.6528928,6.06750147 18.3727007,5.72408864 18.4116941,5.33946083 C18.4506875,4.95483302 18.7941003,4.67464095 19.1787281,4.71363432 L20.5714133,4.85482406 C19.7858604,3.89481147 18.7498389,3.23214136 17.4449979,2.85527217 C15.7083183,2.35367768 13.9612371,2.31895766 12.1896519,2.75126168 C11.760419,2.85600355 11.3275468,2.59295153 11.2228049,2.16371856 C11.1180631,1.73448558 11.3811151,1.30161345 11.8103481,1.19687158 C13.8526036,0.698518307 15.8835115,0.738878862 17.8889691,1.31810282 C19.4837459,1.77871239 20.7832921,2.60749532 21.7698814,3.79330304 Z" id="Combined-Shape" fill="#B9C5D1" fill-rule="nonzero"></path>
                                    <g id="Group-4" transform="translate(12.000000, 1.000000)"></g>
                                    <g id="Group-4-Copy" transform="translate(10.500000, 19.500000) scale(-1, -1) translate(-10.500000, -19.500000) translate(5.000000, 17.000000)" fill="#B9C5D1" fill-rule="nonzero">
                                        <path d="M9.76988142,2.79330304 L9.76988142,1.89631833 C9.76988142,1.509719 10.0832821,1.19631833 10.4698814,1.19631833 C10.8564807,1.19631833 11.1698814,1.509719 11.1698814,1.89631833 L11.1698814,5.52543154 L7.03752062,5.10649485 C6.65289281,5.06750147 6.37270074,4.72408864 6.41169412,4.33946083 C6.45068749,3.95483302 6.79410032,3.67464095 7.17872813,3.71363432 L8.57141334,3.85482406 C7.78586041,2.89481147 6.74983892,2.23214136 5.44499792,1.85527217 C3.70831826,1.35367768 1.96123713,1.31895766 0.189651925,1.75126168 C-0.23958105,1.85600355 -0.672453185,1.59295153 -0.777195051,1.16371856 C-0.881936917,0.734485581 -0.618884899,0.301613445 -0.189651925,0.196871579 C1.85260363,-0.301481693 3.8835115,-0.261121138 5.88896907,0.318102817 C7.48374593,0.778712391 8.78329208,1.60749532 9.76988142,2.79330304 Z" id="Combined-Shape"></path>
                                    </g>
                                </g>
                            </g>
                        </g>
                    </g>
                </g>
            </g>
        </g>
    </g>
</svg>