<?xml version="1.0" encoding="UTF-8"?>
<svg width="25px" height="25px" viewBox="0 0 25 25" version="1.1" xmlns="http://www.w3.org/2000/svg" xmlns:xlink="http://www.w3.org/1999/xlink">
    <!-- Generator: Sketch 52.5 (67469) - http://www.bohemiancoding.com/sketch -->
    <title>ic_active_dashboard</title>
    <desc>Created with Sketch.</desc>
    <defs>
        <path d="M1.01211712,12.5 C0.680462663,11.5616632 0.5,10.5519063 0.5,9.5 C0.5,4.52943725 4.52943725,0.5 9.5,0.5 C14.4705627,0.5 18.5,4.52943725 18.5,9.5 C18.5,10.5519063 18.3195373,11.5616632 17.9878829,12.5 L1.01211712,12.5 Z" id="path-1"></path>
    </defs>
    <g id="Symbols" stroke="none" stroke-width="1" fill="none" fill-rule="evenodd">
        <g id="ic_active_dashboard">
            <g>
                <path d="M12.5,24.5 C5.872583,24.5 0.5,19.127417 0.5,12.5 C0.5,5.872583 5.872583,0.5 12.5,0.5 C19.127417,0.5 24.5,5.872583 24.5,12.5 C24.5,19.127417 19.127417,24.5 12.5,24.5 Z" id="Oval" fill="#B9C5D1" fill-rule="nonzero"></path>
                <path d="M4.01211712,15.5 C3.68046266,14.5616632 3.5,13.5519063 3.5,12.5 C3.5,7.52943725 7.52943725,3.5 12.5,3.5 C17.4705627,3.5 21.5,7.52943725 21.5,12.5 C21.5,13.5519063 21.3195373,14.5616632 20.9878829,15.5 L4.01211712,15.5 Z" id="Combined-Shape" fill="#FFFFFF" fill-rule="nonzero"></path>
                <g id="Group-2" transform="translate(3.000000, 3.000000)">
                    <mask id="mask-2" fill="white">
                        <use xlink:href="#path-1"></use>
                    </mask>
                    <g id="Mask" fill-rule="nonzero"></g>
                    <g mask="url(#mask-2)" fill="#2048D5" stroke="#2048D5" stroke-width="0.3">
                        <rect id="Rectangle" x="-0.15" y="8.85" width="2.3" height="1.3" rx="0.65"></rect>
                        <rect id="Rectangle-Copy-4" x="16.85" y="8.85" width="2.3" height="1.3" rx="0.65"></rect>
                        <rect id="Rectangle-Copy-5" transform="translate(9.500000, 1.000000) rotate(90.000000) translate(-9.500000, -1.000000) " x="8.35" y="0.35" width="2.3" height="1.3" rx="0.65"></rect>
                        <rect id="Rectangle-Copy-6" transform="translate(16.060660, 4.060660) rotate(135.000000) translate(-16.060660, -4.060660) " x="14.9106602" y="3.41066017" width="2.3" height="1.3" rx="0.65"></rect>
                        <rect id="Rectangle-Copy-7" transform="translate(3.060660, 4.060660) scale(-1, 1) rotate(135.000000) translate(-3.060660, -4.060660) " x="1.91066017" y="3.41066017" width="2.3" height="1.3" rx="0.65"></rect>
                    </g>
                </g>
                <circle id="Oval" fill="#2048D5" cx="12.5" cy="15.5" r="2.5"></circle>
                <rect id="Rectangle" stroke="#2048D5" stroke-width="0.3" fill="#2048D5" x="11.85" y="6.85" width="1.3" height="9.3" rx="0.65"></rect>
                <path d="M5.40162321,18.3239153 C5.22272974,18.044982 5.30382801,17.6738401 5.58276128,17.4949466 C5.86169454,17.3160532 6.23283644,17.3971514 6.41172991,17.6760847 C7.69553585,19.6778133 9.70178984,20.6728277 12.5057002,20.6728277 C15.3096106,20.6728277 17.3158646,19.6778133 18.5996705,17.6760847 C18.778564,17.3971514 19.1497059,17.3160532 19.4286391,17.4949466 C19.7075724,17.6738401 19.7886707,18.044982 19.6097772,18.3239153 C18.0948849,20.685957 15.7017898,21.8728277 12.5057002,21.8728277 C9.30961059,21.8728277 6.91651548,20.685957 5.40162321,18.3239153 Z" id="Path-8" fill="#2048D5" fill-rule="nonzero"></path>
            </g>
        </g>
    </g>
</svg>