<?xml version="1.0" encoding="UTF-8"?>
<svg width="20px" height="20px" viewBox="0 0 20 20" version="1.1" xmlns="http://www.w3.org/2000/svg" xmlns:xlink="http://www.w3.org/1999/xlink">
    <!-- Generator: Sketch 52.5 (67469) - http://www.bohemiancoding.com/sketch -->
    <title>ic_active_cabs</title>
    <desc>Created with Sketch.</desc>
    <g id="Symbols" stroke="none" stroke-width="1" fill="none" fill-rule="evenodd">
        <g id="ic_active_cabs" fill-rule="nonzero">
            <g>
                <path d="M20,9.6 C20,8.94 19.4489796,8.4 18.7755102,8.4 L17.4759184,8.4 L16.4046939,5.5506 C16.2493878,5.1378 15.7773469,4.6768 15.3553061,4.5264 C15.3553061,4.5266 13.877551,4 10,4 C6.12244898,4 4.64469388,4.5266 4.64469388,4.5266 C4.22265306,4.677 3.75061224,5.1378 3.59530612,5.5508 L2.52408163,8.4 L1.2244898,8.4 C0.551020408,8.4 0,8.94 0,9.6 C0,10.26 0.551020408,10.8 1.2244898,10.8 L1.62183673,10.8 L1.30265306,11.6494 C1.14734694,12.0622 1.02040816,12.76 1.02040816,13.2 L1.02040816,18.4 C1.02040816,19.28 1.75510204,20 2.65306122,20 C3.55102041,20 4.28571429,19.28 4.28571429,18.4 L4.28571429,17.6 L15.7142857,17.6 L15.7142857,18.4 C15.7142857,19.28 16.4489796,20 17.3469388,20 C18.244898,20 18.9795918,19.28 18.9795918,18.4 L18.9795918,13.2 C18.9795918,12.76 18.8526531,12.0622 18.6973469,11.6494 L18.3781633,10.8 L18.7755102,10.8 C19.4489796,10.8 20,10.26 20,9.6 Z M5.24137931,6 L14.7586207,6 L16,9 L4,9 L5.24137931,6 Z M4,15 C3.44783333,15 3,14.552 3,14 C3,13.448 3.44783333,13 4,13 C4.55216667,13 5,13.448 5,14 C5,14.552 4.55216667,15 4,15 Z M16,15 C15.4476667,15 15,14.5523333 15,14 C15,13.4476667 15.4476667,13 16,13 C16.5523333,13 17,13.4476667 17,14 C17,14.5523333 16.5523333,15 16,15 Z" id="Shape" fill="#3359DB"></path>
                <path d="M5.53011858,2.3 C5.08829078,2.3 4.73011858,1.9418278 4.73011858,1.5 C4.73011858,1.0581722 5.08829078,0.7 5.53011858,0.7 L15,0.7 C15.4418278,0.7 15.8,1.0581722 15.8,1.5 C15.8,1.9418278 15.4418278,2.3 15,2.3 L5.53011858,2.3 Z" id="Line" fill="#B9C5D1"></path>
            </g>
        </g>
    </g>
</svg>