<?xml version="1.0" encoding="UTF-8"?>
<svg width="25px" height="26px" viewBox="0 0 25 26" version="1.1" xmlns="http://www.w3.org/2000/svg" xmlns:xlink="http://www.w3.org/1999/xlink">
    <!-- Generator: sketchtool 52.6 (67491) - http://www.bohemiancoding.com/sketch -->
    <title>B6F0DB43-C325-4C02-970D-BBD606B4BAF2</title>
    <desc>Created with sketchtool.</desc>
    <g id="Web-App" stroke="none" stroke-width="1" fill="none" fill-rule="evenodd">
        <g id="Travel" transform="translate(-62.000000, -304.000000)">
            <g id="Sidebar">
                <g id="3-Trips-Copy" transform="translate(33.000000, 295.000000)">
                    <g id="ic_active_travel" transform="translate(26.000000, 4.000000)">
                        <g id="ic_active_travel-copy">
                            <g id="Group" transform="translate(17.237611, 16.420503) rotate(45.000000) translate(-17.237611, -16.420503) translate(7.737611, 2.920503)">
                                <path d="M7.32024678,5.59103322 L1.73754678,8.74967322 C1.13668185,9.09131818 0.765985118,9.72971232 0.767106781,10.4209132 L0.767106781,11.8706932 C0.765085219,11.9081511 0.781620739,11.9442062 0.811326781,11.9671132 C0.839871496,11.990448 0.878450416,11.9973696 0.913326781,11.9854132 L7.53660678,9.96611322 L7.32024678,5.59103322 Z" id="Path" stroke="#3359DB" stroke-width="0.8" fill="#3359DB"></path>
                                <path d="M17.4642532,8.74889322 L11.8258732,5.54837322 L11.6057332,9.96617322 L18.2846932,11.9873332 C18.3202861,11.9991673 18.3594484,11.9922151 18.3887932,11.9688532 C18.4183945,11.9458998 18.4348706,11.9098989 18.4328932,11.8724932 L18.4328932,10.4188732 C18.4337029,9.7285578 18.0638674,9.09094427 17.4642532,8.74889322 Z" id="Path" stroke="#3359DB" stroke-width="0.8" fill="#3359DB"></path>
                                <path d="M11.83734,17.4915 L13.54734,18.48066 C13.7632952,18.6060222 13.8692939,18.859894 13.80654,19.10172 C13.7667942,19.2537808 13.6644463,19.3818632 13.5249001,19.4541755 C13.385354,19.5264879 13.221693,19.5362504 13.07454,19.48104 L10.1319,18.37746 C9.78893868,18.2488614 9.41100132,18.2488614 9.06804,18.37746 L6.12552,19.48092 C5.97860463,19.5359822 5.81524973,19.5263036 5.67586409,19.4542786 C5.53647845,19.3822535 5.43408041,19.2546089 5.394,19.10292 L5.3919,19.09464 C5.32992875,18.85476 5.43378436,18.6027732 5.64678,18.47622 L7.31664,17.49102 C7.80223691,17.2055032 8.08872549,16.6735984 8.05992,16.11102 L7.37112,2.25288 C7.37112,1.03780937 8.35612937,0.0528 9.5712,0.0528 C10.7862706,0.0528 11.77128,1.03780937 11.77128,2.25288 L11.08278,16.1049 C11.0531749,16.6723018 11.3448164,17.2082302 11.83734,17.4915 Z M8.44778471,4.14726839 L10.7734653,4.08538603 C11.1378245,4.07569673 11.4253412,3.77247054 11.4156519,3.40811139 C11.415202,3.39119206 11.4141013,3.3742963 11.4123525,3.35746159 C11.2415118,1.71295629 10.6025901,0.92872382 9.49558721,1.00476418 C8.39329256,1.08048113 7.81827845,1.90134239 7.77054489,3.46734796 L7.77049941,3.46734658 C7.7593932,3.83171041 8.0457651,4.13608903 8.41012894,4.14719524 C8.42267761,4.14757773 8.43523464,4.14760213 8.44778471,4.14726839 Z" id="Combined-Shape" stroke="#3359DB" stroke-width="0.8" fill="#3359DB"></path>
                                <path d="M1.48,17 C1.21490332,17 1,17.2149033 1,17.48 L1,22.9556 C1,23.2206967 1.21490332,23.4356 1.48,23.4356 C1.74509668,23.4356 1.96,23.2206967 1.96,22.9556 L1.96,17.48 C1.96,17.2149033 1.74509668,17 1.48,17 Z" id="Path" stroke="#B9C5D1" fill="#B9C5D1"></path>
                                <path d="M18.48,17 C18.2149033,17 18,17.2149033 18,17.48 L18,22.9556 C18,23.2206967 18.2149033,23.4356 18.48,23.4356 C18.7450967,23.4356 18.96,23.2206967 18.96,22.9556 L18.96,17.48 C18.96,17.2149033 18.7450967,17 18.48,17 Z" id="Path" stroke="#B9C5D1" fill="#B9C5D1"></path>
                                <path d="M9.6,23.2846936 C9.33490332,23.2846936 9.12,23.4147461 9.12,23.575174 L9.12,26.0596531 C9.12,26.220081 9.33490332,26.3501336 9.6,26.3501336 C9.86509668,26.3501336 10.08,26.220081 10.08,26.0596531 L10.08,23.575174 C10.08,23.4147461 9.86509668,23.2846936 9.6,23.2846936 Z" id="Path" stroke="#B9C5D1" fill="#B9C5D1"></path>
                            </g>
                        </g>
                    </g>
                </g>
            </g>
        </g>
    </g>
</svg>