<?xml version="1.0" encoding="UTF-8"?>
<svg width="25px" height="18px" viewBox="0 0 25 18" version="1.1" xmlns="http://www.w3.org/2000/svg" xmlns:xlink="http://www.w3.org/1999/xlink">
    <!-- Generator: Sketch 52.5 (67469) - http://www.bohemiancoding.com/sketch -->
    <title>ic_active_routes</title>
    <desc>Created with Sketch.</desc>
    <g id="Symbols" stroke="none" stroke-width="1" fill="none" fill-rule="evenodd">
        <g id="ic_active_routes" transform="translate(-1.000000, -5.000000)" fill-rule="nonzero">
            <g>
                <g id="location-copy" transform="translate(12.414214, 12.500000) rotate(-45.000000) translate(-12.414214, -12.500000) translate(3.414214, 5.000000)" fill="#B9C5D1">
                    <path d="M16.679197,8.21149656 L7.19118084,4.50213511 C6.99193654,4.4242401 6.7937595,4.38158089 6.60084911,4.36956478 L3.59938991,3.19613749 L4.75366061,5.51368249 C4.54137076,5.99174815 4.52232478,6.56400123 4.79863134,7.11876961 L5.21230996,7.94935365 L3.56200526,11.4162024 L6.36744895,10.268642 L7.26152741,12.0637729 L1.92661878,14.2460052 C1.08081479,14.5919794 0.252327583,13.7157457 0.645101461,12.8906329 L3.35653698,7.1946322 L0.652898553,1.7662663 C0.245010962,0.947309494 1.0600289,0.0559573777 1.91213513,0.389090243 L16.9121351,6.25337428 C17.7529003,6.58207334 17.7621544,7.76851531 16.9266188,8.11028925 L16.679197,8.21149656 Z" id="Combined-Shape"></path>
                </g>
                <g id="location" transform="translate(18.828427, 12.500000) rotate(-45.000000) translate(-18.828427, -12.500000) translate(9.828427, 5.000000)" fill="#3359DB">
                    <path d="M9.3346497,13.4244566 L3.9062838,16.128095 C3.087327,16.5359826 2.19597488,15.7209646 2.52910775,14.8688584 L8.39339179,-0.131141599 C8.72209084,-0.971906785 9.90853282,-0.981160847 10.2503068,-0.145625246 L16.3860227,14.8543748 C16.7319969,15.7001787 15.8557632,16.5286659 15.0306504,16.1358921 L9.3346497,13.4244566 Z M9.34574816,2.92563767 L5.336155,13.1816036 L8.87892375,11.417101 C9.15408838,11.2800532 9.47699568,11.2771779 9.75455716,11.4093039 L13.5562199,13.2189883 L9.34574816,2.92563767 Z" id="Path" transform="translate(9.460506, 7.734702) rotate(-270.000000) translate(-9.460506, -7.734702) "></path>
                </g>
            </g>
        </g>
    </g>
</svg>