<?xml version="1.0" encoding="UTF-8"?>
<svg width="25px" height="25px" viewBox="0 0 25 25" version="1.1" xmlns="http://www.w3.org/2000/svg" xmlns:xlink="http://www.w3.org/1999/xlink">
    <!-- Generator: Sketch 52.5 (67469) - http://www.bohemiancoding.com/sketch -->
    <title>ic_inactive_settings copy</title>
    <desc>Created with Sketch.</desc>
    <g id="Symbols" stroke="none" stroke-width="1" fill="none" fill-rule="evenodd">
        <g id="ic_inactive_settings" fill-rule="nonzero">
            <g id="ic_inactive_settings-copy">
                <path d="M12.8540947,25 L12.1040435,25 L11.7215174,24.8850014 C10.7989827,24.6332914 10.0403879,23.9768149 9.65887667,23.100023 C9.52443507,22.8004912 9.35670102,22.5170434 9.15884255,22.2550333 C8.84632123,21.8400383 8.59630417,21.7550394 8.40879138,21.7550394 C7.94898784,21.7072145 7.48464354,21.779574 7.06119945,21.9650368 C5.91325554,22.4787222 4.56783655,22.2371864 3.67029539,21.356286 C2.77275423,20.4753856 2.50617316,19.1348085 2.99842227,17.9775852 C3.16018851,17.6173634 3.24532737,17.2274587 3.24843933,16.8325991 C3.2678405,16.6189024 3.21692323,16.4047159 3.10342944,16.2226065 C2.80652321,15.8235478 2.4012756,15.518118 1.93584978,15.3426171 C1.45286719,15.1503669 1.02812892,14.8359307 0.703265692,14.4301282 C0.072410995,13.6840447 -0.151871509,12.675789 0.103224755,11.7326609 C0.35448789,10.7928503 1.03337021,10.0260434 1.93584978,9.66268602 C2.25284661,9.54223719 2.54391553,9.362349 2.79340829,9.13269245 C3.00826735,8.9790496 3.16295715,8.75543031 3.23093814,8.50020012 C3.29973257,8.01105699 3.22775239,7.51243917 3.02342398,7.06271756 C2.71681178,6.35849288 2.68910907,5.56411449 2.94591869,4.84024451 C3.20507287,4.0380664 3.7985688,3.38718767 4.57352973,3.05526616 C5.37029778,2.70589169 6.27693225,2.70589169 7.0737003,3.05526616 C7.41880186,3.21156627 7.79509981,3.28681981 8.17377535,3.27526349 C8.3770406,3.28585512 8.57841273,3.23157656 8.74881458,3.12026537 C9.14768641,2.82374353 9.45241798,2.41833553 9.62637445,1.95277953 C9.82073138,1.46274605 10.1395865,1.03189543 10.5514376,0.702794695 C11.3007745,0.0683803408 12.3154169,-0.154373798 13.2616225,0.107801911 C14.1985233,0.368462496 14.961414,1.04909849 15.3267633,1.95027956 C15.4486714,2.26784814 15.6293358,2.55960188 15.8592997,2.81026913 C16.0249921,3.04168103 16.2742829,3.19949275 16.5543471,3.2502638 C17.0181167,3.29785486 17.4862545,3.22285539 17.9119397,3.03276643 C18.6240244,2.71815693 19.4300471,2.69039616 20.1620932,2.95526737 C20.9585051,3.21697581 21.6035322,3.80911413 21.932214,4.58024767 C22.2813104,5.37701584 22.2813104,6.28344917 21.932214,7.08021734 C21.77664,7.42744912 21.6997996,7.80479029 21.7071986,8.18520394 C21.6916747,8.39161792 21.7405942,8.59776237 21.8472082,8.77519679 C22.156872,9.19107683 22.5820509,9.50667508 23.0697916,9.68268578 C23.6655831,9.91369359 24.1629709,10.3439039 24.4773876,10.900171 C24.607587,11.1451121 24.7179477,11.4000917 24.8074101,11.6626618 C24.8399124,11.7526607 24.8749147,11.8451596 24.9099171,11.9351585 L24.9424193,12.0001577 L24.9574204,12.0726568 C25.0141932,12.3523014 25.0141932,12.6405019 24.9574204,12.9201465 L24.9399192,13.0001455 L24.907417,13.1001443 C24.907417,13.1226441 24.8899158,13.1476438 24.8824153,13.1776434 C24.6491631,14.1917872 23.9222137,15.021044 22.9472832,15.3851166 C22.6145166,15.5191659 22.31378,15.7219125 22.064723,15.9801094 C21.8798074,16.1290366 21.7582885,16.3425711 21.7246998,16.5776022 C21.6773496,17.0381703 21.7496875,17.5031623 21.9347142,17.9275858 C22.1596616,18.4412358 22.2383935,19.0070215 22.1622297,19.5625659 C22.060256,20.5171793 21.5008434,21.3627568 20.6621273,21.8300384 C19.8164768,22.2998066 18.8009293,22.351503 17.9119397,21.9700367 C17.5657188,21.8164726 17.1906012,21.7388977 16.8118647,21.7425395 C16.5923207,21.7241879 16.3732025,21.7824969 16.1918224,21.9075375 C15.7965141,22.2200434 15.4946749,22.635147 15.3192628,23.107523 C15.1478596,23.5308864 14.8788724,23.9077808 14.5342093,24.2075096 C14.0833712,24.5864679 13.5484735,24.8521811 12.9741028,24.9825002 L12.8540947,25 Z M12.359425,23 L12.637369,23 C12.9174822,22.9364334 13.1794707,22.8100463 13.4035277,22.6303938 C13.5511197,22.5034552 13.6669896,22.343798 13.7418943,22.1641586 C14.0154232,21.4452784 14.4790297,20.8140789 15.0832763,20.3378693 C15.5348271,20.0028193 16.0875017,19.8323238 16.6494304,19.8547239 C17.2456052,19.8473335 17.8362014,19.970177 18.3799341,20.2146672 C18.7853004,20.3776397 19.2425765,20.3492403 19.6246399,20.1373639 C19.9969736,19.928583 20.2407709,19.5481183 20.2747872,19.1227588 C20.3120106,18.8701397 20.2768129,18.612149 20.1732772,18.378715 C19.888302,17.725514 19.7743531,17.0105628 19.8421613,16.3011901 C19.9065886,15.7069968 20.1838646,15.1561471 20.6228214,14.7502936 C21.0195434,14.3423978 21.4980877,14.0229749 22.027043,13.8129916 C22.4985687,13.6408698 22.8459018,13.235082 22.9430498,12.7428247 C22.962385,12.6751844 22.9817202,12.6172069 22.9986386,12.5664767 C23.0004538,12.5423535 23.0004538,12.5181281 22.9986386,12.4940049 C22.9986386,12.4940049 22.9986386,12.4722633 22.9986386,12.4626004 C22.9696357,12.3877129 22.9430498,12.3152411 22.9164638,12.2403536 C22.857577,12.0653248 22.7856749,11.8949434 22.7013593,11.7306353 C22.5754178,11.507304 22.3740886,11.3360435 22.1333868,11.2474899 C21.3795716,10.9671369 20.7254138,10.4704546 20.2530351,9.8197955 C19.9582503,9.38509196 19.807744,8.86871822 19.8228261,8.34378653 C19.8135015,7.7453819 19.9364673,7.1522991 20.1829448,6.60687908 C20.327766,6.24403868 20.3199228,5.83813115 20.1611927,5.48115047 C20.0250642,5.14523406 19.7486376,4.88571382 19.4047016,4.77092684 C19.0719964,4.64255073 18.702084,4.65036197 18.3751003,4.79266838 C17.7160115,5.08493278 16.9923844,5.2014557 16.2748102,5.13087011 C15.6102233,5.04722242 15.0038739,4.70956385 14.5829771,4.18873672 C14.2274842,3.79993691 13.9486794,3.34750976 13.7612296,2.85525562 C13.5859825,2.45943985 13.2429222,2.16262023 12.8258875,2.0459872 C12.4007754,1.92976155 11.945702,2.03710654 11.6174353,2.33104294 C11.4309158,2.47860185 11.2866804,2.67276646 11.1993108,2.89390725 C10.9197143,3.6179897 10.4392936,4.24734412 9.81442452,4.70811795 C9.38093146,5.00864644 8.86262959,5.16270685 8.33527896,5.14778019 C7.73617953,5.15578844 7.14247165,5.03380796 6.59510772,4.79025265 C6.23132733,4.6426066 5.82319614,4.64870815 5.46399641,4.80716274 C5.12853483,4.95058089 4.87311214,5.23414742 4.76551101,5.58261099 C4.63996472,5.91234035 4.64776627,6.27796809 4.78726315,6.60204763 C5.10123851,7.30394033 5.21177565,8.07983419 5.10629455,8.84142621 C4.99841896,9.45979422 4.67051396,10.0183338 4.18303703,10.4140643 C3.79478266,10.7709514 3.34197966,11.0505358 2.84890574,11.237827 C2.45186627,11.4115158 2.15561502,11.7565292 2.04407654,12.175129 C1.93017932,12.6012659 2.04029258,13.0560576 2.33652199,13.3829923 C2.4810721,13.5651658 2.67115483,13.7059918 2.88757621,13.7912501 C3.60743816,14.0681459 4.23478268,14.541983 4.69783769,15.1585514 C5.00918029,15.6043382 5.16619647,16.1396297 5.14496502,16.6828749 C5.14191059,17.2784476 5.01688675,17.8670887 4.77759553,18.4125351 C4.56340956,18.9340439 4.68952323,19.5333995 5.09573507,19.9244943 C5.50194691,20.315589 6.10589397,20.419125 6.61927677,20.1856785 C7.27381337,19.9016631 7.99029723,19.790209 8.70023154,19.8619711 C9.44161217,19.9502634 10.108214,20.35567 10.5274113,20.9732054 C10.7909859,21.3220207 11.0139714,21.6996955 11.1920601,22.098934 C11.3749524,22.5273498 11.7494357,22.8443413 12.2023262,22.9541012 L12.359425,23 Z" id="Combined-Shape" fill="#808FA3"></path>
                <path d="M12.5011029,17 C10.0129253,16.9951418 7.99877908,14.9795185 8.00000056,12.4955969 C8.00363245,10.0168272 10.013679,8.00727003 12.4966923,8 C14.9822896,8.00363745 16.9963563,10.0142555 17,12.4955969 C16.9976038,14.970588 14.9935427,16.9790863 12.514335,16.9911937 L12.4922816,16.9911937 L12.5011029,17 Z M12.4995913,10.0072046 C11.4860572,10.0082953 10.5732881,10.619705 10.1879614,11.5556281 C9.80263478,12.4915511 10.0208675,13.5671065 10.7406458,14.2795217 C11.2064075,14.7433327 11.8381526,15.0026253 12.4959832,14.99998 L12.5104156,14.99998 C13.887294,14.991073 14.9990376,13.8746827 15,12.49999 C14.9980233,11.1222094 13.8813876,10.0049546 12.5013954,10 L12.4995913,10.0072046 Z" id="Combined-Shape" fill="#B9C5D1"></path>
            </g>
        </g>
    </g>
</svg>